<?xml version="1.0" encoding="UTF-8"?>
<svg xmlns="http://www.w3.org/2000/svg" xmlns:xlink="http://www.w3.org/1999/xlink" width="45pt" height="45pt" viewBox="0 0 45 45" version="1.1">
<g id="surface1">
<path style=" stroke:none;fill-rule:nonzero;fill:rgb(38.431373%,32.156863%,25.098039%);fill-opacity:1;" d="M 45 22.5 C 45 34.929688 34.929688 45 22.5 45 C 10.070312 45 0 34.929688 0 22.5 C 0 10.070312 10.070312 0 22.5 0 C 34.929688 0 45 10.070312 45 22.5 Z M 45 22.5 "/>
<path style=" stroke:none;fill-rule:nonzero;fill:rgb(100%,100%,100%);fill-opacity:1;" d="M 24.1875 12.019531 C 23.933594 12.019531 23.726562 12.121094 23.625 12.320312 L 19.632812 19.277344 C 19.632812 19.332031 19.535156 19.6875 19.742188 19.941406 C 19.789062 19.996094 19.789062 19.996094 19.839844 20.042969 C 20.148438 20.25 20.660156 19.941406 20.660156 19.941406 L 23.523438 14.933594 L 23.523438 25.875 L 17.335938 25.875 C 18.460938 23.933594 19.585938 21.9375 20.710938 19.996094 C 20.503906 20.25 20.148438 20.304688 19.894531 20.148438 C 19.632812 19.996094 19.535156 19.632812 19.632812 19.378906 C 18.355469 21.683594 17.027344 23.933594 15.75 26.230469 C 15.648438 26.4375 15.648438 26.644531 15.75 26.847656 C 15.851562 27.054688 16.058594 27.152344 16.257812 27.152344 L 24.1875 27.152344 C 24.542969 27.152344 24.804688 26.898438 24.804688 26.539062 L 24.804688 12.628906 C 24.804688 12.476562 24.75 12.320312 24.597656 12.167969 C 24.496094 12.066406 24.339844 12.019531 24.1875 12.019531 Z M 24.1875 12.019531 "/>
<path style=" stroke:none;fill-rule:nonzero;fill:rgb(100%,100%,100%);fill-opacity:1;" d="M 33.902344 26.691406 C 33.542969 25.929688 33.085938 25.773438 32.726562 25.773438 L 30.683594 25.773438 L 30.683594 8.382812 C 30.683594 8.027344 30.527344 7.667969 30.222656 7.464844 C 30.222656 7.464844 30.222656 7.464844 30.167969 7.464844 C 29.867188 7.257812 29.558594 7.105469 29.195312 7.058594 C 28.742188 6.957031 28.226562 6.851562 27.769531 6.851562 C 27.207031 6.804688 26.539062 6.804688 25.722656 6.804688 C 25.003906 6.804688 24.339844 6.804688 23.832031 6.851562 C 23.371094 6.851562 22.910156 6.902344 22.5 7.003906 C 22.191406 7.058594 21.835938 7.160156 21.582031 7.3125 C 21.320312 7.464844 21.121094 7.667969 20.964844 7.875 L 11.605469 24.289062 C 11.457031 24.597656 11.300781 24.902344 11.195312 25.210938 C 11.097656 25.519531 10.996094 25.820312 10.941406 26.128906 C 10.894531 26.492188 10.839844 26.847656 10.839844 27.207031 C 10.839844 27.5625 10.789062 27.972656 10.789062 28.535156 C 10.789062 29.042969 10.789062 29.558594 10.894531 30.066406 C 10.941406 30.429688 11.042969 30.785156 11.195312 31.089844 L 11.195312 31.144531 C 11.351562 31.445312 11.660156 31.652344 11.964844 31.753906 C 12.222656 31.855469 12.476562 31.855469 12.730469 31.855469 L 23.570312 31.855469 L 23.570312 36.664062 C 23.570312 36.917969 23.679688 37.226562 23.832031 37.433594 C 24.035156 37.6875 24.289062 37.839844 24.597656 37.941406 C 24.957031 38.042969 25.257812 38.097656 25.621094 38.148438 C 26.128906 38.195312 26.589844 38.195312 27.101562 38.195312 C 27.617188 38.195312 28.125 38.195312 28.585938 38.148438 C 28.941406 38.097656 29.25 38.042969 29.605469 37.941406 C 29.914062 37.839844 30.167969 37.6875 30.375 37.433594 C 30.527344 37.226562 30.628906 36.917969 30.628906 36.664062 L 30.628906 31.855469 L 32.679688 31.855469 C 32.980469 31.855469 33.542969 31.707031 33.902344 30.835938 C 34.105469 30.375 34.210938 29.710938 34.210938 28.789062 C 34.257812 27.871094 34.160156 27.152344 33.902344 26.691406 Z M 32.832031 30.429688 C 32.777344 30.527344 32.777344 30.582031 32.726562 30.683594 L 30.121094 30.683594 C 29.757812 30.683594 29.503906 30.9375 29.503906 31.292969 L 29.503906 36.714844 C 29.457031 36.769531 29.402344 36.769531 29.304688 36.816406 C 29.042969 36.871094 28.789062 36.917969 28.535156 36.972656 C 28.226562 37.023438 27.769531 37.023438 27.152344 37.023438 C 26.589844 37.023438 26.128906 37.023438 25.820312 36.972656 C 25.566406 36.972656 25.3125 36.917969 25.058594 36.816406 C 25.003906 36.816406 24.957031 36.769531 24.902344 36.714844 C 24.902344 36.714844 24.902344 36.714844 24.902344 36.664062 L 24.902344 31.292969 C 24.902344 30.9375 24.648438 30.683594 24.289062 30.683594 L 12.730469 30.683594 C 12.582031 30.683594 12.476562 30.683594 12.375 30.628906 C 12.375 30.628906 12.320312 30.582031 12.273438 30.527344 C 12.167969 30.320312 12.121094 30.121094 12.121094 29.914062 C 12.066406 29.457031 12.019531 28.996094 12.066406 28.535156 C 12.066406 28.023438 12.066406 27.617188 12.121094 27.308594 C 12.121094 27 12.167969 26.691406 12.222656 26.382812 C 12.273438 26.128906 12.320312 25.875 12.425781 25.667969 C 12.527344 25.414062 12.628906 25.160156 12.785156 24.902344 L 21.992188 8.492188 C 22.039062 8.4375 22.089844 8.382812 22.144531 8.382812 C 22.347656 8.285156 22.554688 8.230469 22.753906 8.183594 C 23.164062 8.128906 23.523438 8.082031 23.933594 8.027344 C 24.441406 7.976562 25.058594 7.976562 25.722656 7.976562 C 26.539062 7.976562 27.207031 7.976562 27.714844 8.027344 C 28.125 8.027344 28.535156 8.128906 28.941406 8.183594 C 29.097656 8.230469 29.304688 8.285156 29.457031 8.382812 L 29.457031 26.382812 C 29.457031 26.746094 29.710938 27 30.066406 27 L 32.679688 27 C 32.726562 27.054688 32.777344 27.152344 32.777344 27.207031 C 32.878906 27.410156 32.980469 27.871094 32.980469 28.839844 C 32.980469 29.558594 32.933594 30.121094 32.832031 30.429688 Z M 32.832031 30.429688 "/>
<path style=" stroke:none;fill-rule:nonzero;fill:rgb(96.078431%,92.156863%,89.803922%);fill-opacity:1;" d="M 20.195312 20.148438 C 20.558594 20.148438 20.8125 19.894531 20.8125 19.535156 C 20.8125 19.179688 20.558594 18.917969 20.195312 18.917969 C 19.839844 18.917969 19.585938 19.179688 19.585938 19.535156 C 19.585938 19.839844 19.839844 20.148438 20.195312 20.148438 Z M 20.195312 20.148438 "/>
</g>
</svg>
