<?xml version="1.0" encoding="utf-8"?>
<!-- Generator: Adobe Illustrator 24.3.0, SVG Export Plug-In . SVG Version: 6.00 Build 0)  -->
<svg version="1.1" id="Calque_1" xmlns="http://www.w3.org/2000/svg" xmlns:xlink="http://www.w3.org/1999/xlink" x="0px" y="0px"
	 viewBox="0 0 500 500" style="enable-background:new 0 0 500 500;" xml:space="preserve">
<style type="text/css">
	.st0{fill:none;}
	.st1{fill:#E0E0E0;}
	.st2{fill:#F5F5F5;}
	.st3{fill:#EBEBEB;}
	.st4{fill:#FAFAFA;}
	.st5{fill:#263238;}
	.st6{fill:#FFFFFF;}
	.st7{fill:#625240;}
	.st8{opacity:0.3;}
	.st9{fill:#455A64;}
	.st10{opacity:0.2;}
	.st11{opacity:0.8;fill:#FFFFFF;enable-background:new    ;}
	.st12{fill-rule:evenodd;clip-rule:evenodd;fill:#625240;}
	.st13{opacity:0.5;fill-rule:evenodd;clip-rule:evenodd;fill:#FFFFFF;enable-background:new    ;}
	.st14{opacity:0.6;}
	.st15{opacity:0.6;fill:#FFFFFF;enable-background:new    ;}
</style>
<g id="freepik--background-complete--inject-18">
	<path class="st0" d="M363.9,182.9c1-1.3,2.1-2.5,3.4-3.5l-0.8-4.5l6.9-3l2.7,3.7c1.6-0.2,3.3-0.3,4.9-0.1l2.6-3.8l7,2.8l-0.7,4.5
		c1.3,1,2.5,2.1,3.5,3.4l4.5-0.8l3,6.9l-3.7,2.7c0.2,1.6,0.3,3.3,0.1,4.9l3.8,2.6l-2.8,7l-4.5-0.7c-1,1.3-2.1,2.5-3.4,3.5l0.8,4.5
		l-6.9,3l-2.7-3.7c-1.6,0.2-3.3,0.3-4.9,0.1l-2.6,3.8l-7-2.8l0.7-4.5c-1.3-1-2.5-2.1-3.5-3.4l-4.5,0.8l-3-6.9l3.7-2.7
		c-0.2-1.6-0.3-3.3-0.1-4.9l-3.8-2.6l2.8-7L363.9,182.9L363.9,182.9z M371.5,190.7c-1.6,4.2,0.4,8.9,4.5,10.5s8.9-0.4,10.5-4.5
		c1.6-4.1-0.4-8.8-4.5-10.5C377.8,184.5,373.1,186.5,371.5,190.7C371.5,190.7,371.5,190.7,371.5,190.7z"/>
	<path class="st1" d="M371.5,190.7c0-0.2,0.1-0.3,0.2-0.5c0.2-0.5,0.4-0.9,0.7-1.3c1.1-1.5,2.6-2.7,4.4-3.2c1.2-0.4,2.5-0.4,3.8-0.2
		c1.5,0.3,2.8,1,3.9,1.9c1.2,1.1,2.1,2.5,2.5,4.1c0.9,3.5-0.5,7.2-3.6,9.2c-1.4,0.9-3,1.3-4.7,1.2c-1.5-0.1-2.9-0.5-4.2-1.3
		c-1.1-0.7-2-1.6-2.6-2.8c-0.9-1.6-1.3-3.5-1-5.3c0.1-0.5,0.2-1,0.4-1.4C371.3,191,371.3,190.9,371.5,190.7c-0.2,0.7-0.3,1.3-0.4,2
		c-0.2,1.8,0.2,3.6,1.1,5.1c1.4,2.3,3.9,3.7,6.5,3.8c1.6,0,3.1-0.4,4.4-1.2c3.7-2.3,4.8-7.2,2.5-10.8c-0.4-0.6-0.9-1.2-1.4-1.7
		c-1.1-0.9-2.3-1.6-3.7-1.9c-1.2-0.2-2.4-0.2-3.6,0.1c-1.7,0.5-3.3,1.5-4.4,2.9C371.7,190,371.5,190.7,371.5,190.7z"/>
	<path class="st1" d="M363.9,182.9h-0.3l-0.9-0.1l-3.4-0.5l0.1-0.1l-2.7,7l0-0.1c1.1,0.8,2.4,1.6,3.8,2.6l0.1,0.1v0.1
		c-0.2,1.6-0.2,3.3,0.1,4.9v0.1l-0.1,0.1l-3.7,2.7l0.1-0.2c1,2.2,2,4.5,3,6.9l-0.2-0.1l4.5-0.9h0.1l0.1,0.1c1,1.3,2.2,2.4,3.5,3.4
		l0.1,0.1v0.1c-0.2,1.4-0.5,2.9-0.7,4.5l-0.1-0.2l7,2.8l-0.3,0.1c0.8-1.2,1.7-2.5,2.6-3.8l0.1-0.1h0.1c1.6,0.2,3.2,0.2,4.9-0.1h0.1
		l0.1,0.1l2.7,3.7l-0.3-0.1l6.9-3l-0.1,0.3c-0.3-1.4-0.5-2.9-0.8-4.5v-0.2l0.1-0.1c1.3-1,2.4-2.2,3.4-3.5l0,0l0.2-0.1h0.1h0.1
		l0.3,0.1l0.6,0.1l1.1,0.2l2.2,0.4l-0.3,0.2c0.9-2.4,1.9-4.7,2.8-7l0.1,0.3l-3.8-2.6l-0.1-0.1v-0.2c0.2-1.6,0.2-3.2-0.1-4.9v-0.1
		l0.1-0.1l3.7-2.7l-0.1,0.3l-3-6.9l0.3,0.1l-4.5,0.8h-0.1l-0.1-0.1c-1-1.3-2.2-2.4-3.5-3.4l-0.1-0.1V179c0.2-1.5,0.5-3,0.7-4.5
		l0.1,0.2l-7-2.8l0.2-0.1c-0.9,1.3-1.8,2.6-2.6,3.8l-0.1,0.1H381c-1.6-0.2-3.3-0.2-4.9,0H376l-0.1-0.1c-1-1.4-1.8-2.6-2.7-3.7
		l0.2,0.1l-6.9,3l0.1-0.1l0.8,4.5v0.1l0,0c-1,0.8-1.9,1.6-2.7,2.6l-0.6,0.7C364.1,182.8,364,182.9,363.9,182.9l0.2-0.3
		c0.1-0.2,0.3-0.4,0.6-0.7c0.8-1,1.7-1.8,2.6-2.6v0.1c-0.2-1.2-0.5-2.7-0.9-4.5v-0.1h0.1l6.9-3l0.1-0.1l0.1,0.1l2.7,3.7l-0.2-0.1
		c1.7-0.3,3.3-0.3,5-0.1l-0.2,0.1l2.6-3.8l0.1-0.1l0.1,0.1l7,2.8l0.2,0.1v0.2c-0.2,1.5-0.5,3-0.7,4.5l-0.1-0.2
		c1.3,1,2.5,2.2,3.6,3.5l-0.2-0.1l4.5-0.8h0.2l0.1,0.2l3,6.9l0.1,0.2l-0.2,0.1l-3.7,2.7l0.1-0.2c0.2,1.7,0.3,3.3,0.1,5l-0.1-0.2
		l3.8,2.6l0.2,0.1l-0.1,0.2c-0.9,2.3-1.9,4.6-2.8,7l-0.1,0.2h-0.2l-2.2-0.4l-1.1-0.2l-0.6-0.1h-0.3H394h-0.1c0.1,0-0.2,0.1,0.2-0.1
		l0,0c-1,1.3-2.2,2.5-3.5,3.6l0.1-0.3c0.3,1.5,0.6,3.1,0.8,4.5v0.2l-0.2,0.1l-6.9,3l-0.2,0.1l-0.1-0.2l-2.7-3.7l0.2,0.1
		c-1.7,0.2-3.3,0.3-5,0.1l0.2-0.1l-2.6,3.8l-0.1,0.2l-0.2-0.1l-7-2.8l-0.2-0.1v-0.2c0.2-1.6,0.5-3.1,0.7-4.5l0.1,0.2
		c-1.3-1-2.5-2.2-3.6-3.5l0.2,0.1l-4.5,0.8h-0.2l-0.1-0.1l-3-6.9l-0.1-0.1l0.1-0.1l3.7-2.7l-0.1,0.2c-0.2-1.7-0.2-3.3,0-5l0.1,0.1
		l-3.8-2.6l-0.1-0.1v-0.1l2.8-7v-0.1h0.1l3.3,0.6l0.9,0.2L363.9,182.9z"/>
	<path class="st1" d="M371.5,190.7c0,0,0.1-0.3,0.4-0.9c0.5-0.9,1.1-1.6,1.8-2.2c3.4-2.8,8.5-2.4,11.3,1c2.8,3.4,2.4,8.5-1,11.3
		c-3,2.5-7.2,2.5-10.2,0c-2-1.7-3.2-4.2-3.1-6.8c0-0.4,0.1-0.9,0.2-1.3c0-0.2,0.1-0.4,0.1-0.6l0.1-0.3v-0.1v-0.1l0,0
		c0,0.1,0.1,0.2,0.2,0.2l0.3-0.1c-0.2,0.3-0.3,0.7-0.4,1c-0.4,1.6-0.3,3.4,0.3,4.9c0.6,1.5,1.7,2.8,3.1,3.7
		c3.7,2.4,8.7,1.4,11.1-2.3c0.2-0.3,0.4-0.6,0.5-0.9c1.8-3.6,0.7-7.9-2.6-10.2c-3-2.1-7.1-1.9-9.9,0.4c-0.8,0.6-1.4,1.4-1.8,2.3
		c-0.2,0.3-0.3,0.5-0.3,0.7S371.4,190.7,371.5,190.7c-0.1-0.1,0-0.2,0-0.2c0.1-0.2,0.2-0.5,0.3-0.7c0.4-0.9,1-1.7,1.8-2.4
		c2.9-2.5,7.1-2.8,10.3-0.6c2.1,1.5,3.5,3.9,3.6,6.5c0.1,1.4-0.2,2.9-0.8,4.2c-0.7,1.4-1.7,2.6-3,3.4c-2.8,1.9-6.5,1.9-9.3,0.1
		c-1.5-0.9-2.6-2.3-3.3-3.9c-0.7-1.7-0.8-3.5-0.3-5.3c0.1-0.4,0.2-0.8,0.4-1.1l0.1-0.2l0.2,0.1c0.2,0.1,0.2,0.3,0.2,0.2v0.1v0.1v0.1
		v0.2l-0.1,0.3c0,0.2-0.1,0.4-0.1,0.6c-0.1,0.4-0.1,0.8-0.1,1.2c0,0.8,0.1,1.6,0.3,2.4c0.9,3.1,3.6,5.4,6.8,5.6
		c4.2,0.3,7.9-2.8,8.2-7.1c0.2-2.6-0.9-5.2-3-6.7c-1.6-1.2-3.6-1.7-5.6-1.5c-1.5,0.2-2.9,0.8-4.1,1.7c-0.7,0.6-1.4,1.3-1.9,2.1
		C371.6,190.4,371.5,190.7,371.5,190.7z"/>
	<path class="st1" d="M363.9,182.9l-4.6-0.7h0.1c-0.7,1.8-1.7,4.2-2.9,7.1v-0.1l3.8,2.6l-0.2,0.1l-0.1-0.1h0.2
		c-0.2,1.6-0.2,3.3,0.1,4.9h-0.2l0.1-0.1l0.2,0.1l-3.8,2.8v-0.2l3.1,7.2l-0.2-0.1l4.6-0.9v0.3l-0.2-0.1l0.2-0.2
		c1,1.3,2.2,2.5,3.5,3.4l-0.3,0.2l-0.1-0.2h0.3c-0.2,1.4-0.5,3-0.7,4.7l-0.1-0.2l7.3,2.9l-0.2,0.1l2.7-3.9l0.2,0.3l-0.2,0.1l0-0.4
		c1.6,0.2,3.3,0.2,4.9-0.1l0,0.4l-0.2-0.1l0.2-0.3l2.8,3.8l-0.2-0.1l7.3-3.1l-0.1,0.2c-0.3-1.4-0.6-3-0.9-4.7h0.4l-0.1,0.2l-0.4-0.2
		c1.3-1,2.5-2.2,3.4-3.5l0.3,0.4l-0.2,0.1l0-0.4l4.7,0.7l-0.2,0.1c0.9-2.3,1.9-4.8,2.9-7.4l0.1,0.3l-3.9-2.7l0.4-0.3l0.1,0.2
		l-0.5,0.1c0.2-1.6,0.2-3.3-0.1-4.9l0.5,0.1l-0.1,0.2l-0.4-0.3l3.8-2.8l-0.1,0.3c-1-2.2-2-4.7-3.1-7.2l0.3,0.1l-4.6,0.9l0-0.5
		l0.2,0.1l-0.3,0.4c-1-1.3-2.2-2.4-3.5-3.4l0.4-0.3l0.1,0.2l-0.5,0.1c0.2-1.4,0.5-3.1,0.7-4.7l0.2,0.3l-7.3-2.9l0.3-0.1
		c-0.8,1.2-1.7,2.6-2.6,3.9l-0.3-0.4l0.1-0.1l0.1,0.5c-1.6-0.2-3.3-0.2-4.9,0.1l0.1-0.5l0.1,0.1l-0.3,0.4l-2.8-3.8l0.3,0.1l-7.1,3.1
		l0.1-0.3c0.3,1.4,0.6,3,0.9,4.6H367v-0.1l0.4,0.3c-1.1,0.9-2.1,1.9-3,3l-0.2,0.3c0,0,0,0,0,0h-0.1c0.1,0-0.2-0.3-0.4-0.1h0l0,0l0,0
		l0.5-0.5c0.3-0.4,0.6-0.7,1-1.1c0.7-0.7,1.4-1.3,2.1-1.9l-0.1,0.2c-0.3-1.5-0.5-3-0.8-4.5l0.5,0.1l-0.1,0.1l-0.3-0.4l6.9-2.9v0.5
		h-0.2l0.3-0.4c0.9,1.3,1.8,2.5,2.7,3.8l-0.2-0.1c1.7-0.3,3.4-0.3,5.1-0.1l-0.2,0.1l2.6-3.8l0.3,0.4l-0.2,0.1v-0.5l7,2.8l-0.3,0.4
		l-0.1-0.2l0.5-0.1c-0.2,1.6-0.5,3.1-0.7,4.6l-0.1-0.2c1.4,1,2.6,2.2,3.7,3.6l-0.2-0.1l4.6-0.9l-0.1,0.5l-0.2-0.1l0.3-0.3l3,6.9
		h-0.5l0.1-0.3l0.4,0.3l-3.8,2.8l0.1-0.2c0.3,1.7,0.3,3.5,0.1,5.2l-0.1-0.2l3.9,2.7l-0.4,0.3l-0.1-0.3h0.4c-1,2.4-1.9,4.7-2.8,7
		l-0.3-0.3l0.2-0.1l0.1,0.4l-4.6-0.7l0.2-0.1c-1,1.4-2.2,2.7-3.6,3.7l0.1-0.2l0.9,4.6l-0.4-0.1l0.1-0.3l0.3,0.3l-6.9,3v-0.4l0.3,0.1
		l-0.2,0.3l-2.8-3.8l0.2,0.1c-1.7,0.3-3.5,0.3-5.2,0.1l0.2-0.1l-2.6,3.8l-0.2-0.3l0.3-0.1v0.4l-7-2.8l0.2-0.2l0.1,0.2l-0.3,0.1
		c0.3-1.7,0.5-3.2,0.7-4.6l0.1,0.2c-1.4-1-2.6-2.2-3.7-3.6l0.2,0.1l-4.6,0.9l0-0.3l0.2,0.1l-0.2,0.2l-3-6.9h0.2l0,0.2l-0.2-0.1
		l3.8-2.7l0,0.1c-0.3-1.7-0.3-3.4-0.1-5.1v0.1l-3.8-2.6l0.1-0.1l0,0.1h-0.2l2.8-7l0.1,0.1h-0.1v-0.1L363.9,182.9
		c-0.4,0-0.8-0.1-1.2-0.1l-3.4-0.5h-0.2l0.1-0.1l0.1-0.1l0.1-0.1l-0.1,0.1c-0.7,1.7-1.5,4-2.7,7l-0.1,0.2l-0.1-0.2v-0.1l-0.1-0.3
		l0.2,0.1l3.8,2.6h0.1v0.1c-0.2,1.7-0.2,3.3,0.1,5v0.1h-0.1l-3.8,2.8l-0.3,0.2l0.1-0.4l0.1-0.2l0.1-0.4l0.1,0.4
		c0.9,2.1,1.9,4.3,3,6.9l0.2,0.4l-0.4-0.2l-0.2-0.1l-0.4-0.2l0.4-0.1l4.6-0.9h0.1l0.1,0.1c1,1.3,2.3,2.5,3.6,3.5l0.1,0.1v0.1
		l-0.7,4.6l-0.1,0.5l-0.2-0.4l-0.1-0.2l-0.2-0.4l0.5,0.2l7,2.8l0.5,0.2l-0.5,0.1l-0.2,0.1l-0.5,0.2l0.3-0.4l2.6-3.9l0.1-0.1h0.1
		c1.7,0.2,3.4,0.2,5.1-0.1h0.1l0.1,0.1l2.8,3.8l0.4,0.5l-0.6-0.1l-0.3-0.1l-0.6-0.1l0.5-0.2l6.9-3l0.6-0.2l-0.3,0.5l-0.1,0.3
		l-0.3,0.5l-0.1-0.6l-0.9-4.6v-0.1l0.1-0.1c1.3-1,2.5-2.3,3.5-3.6l0.1-0.1h0.1l4.6,0.7l0.6,0.1l-0.6,0.3l-0.2,0.1l-0.6,0.3l0.2-0.6
		c0.9-2.3,1.8-4.6,2.8-7l0.2-0.6l0.2,0.6l0.1,0.3l0.2,0.6l-0.5-0.4l-3.9-2.7l-0.1-0.1v-0.1c0.2-1.7,0.2-3.4-0.1-5.1V191l0.1-0.1
		l3.8-2.8l0.6-0.4l-0.2,0.7c0,0.1,0,0.2-0.1,0.3l-0.2,0.7l-0.3-0.6c-1-2.3-2-4.6-3-6.9l-0.3-0.6l0.6,0.3l0.2,0.1l0.6,0.3L398,182
		l-4.6,0.9h-0.1l-0.1-0.1c-1-1.3-2.2-2.5-3.6-3.5l-0.1-0.1V179c0.2-1.5,0.5-3.1,0.7-4.6l0.1-0.7l0.4,0.6l0.1,0.2l0.4,0.6l-0.7-0.3
		l-7-2.8l-0.7-0.3l0.7-0.2l0.2-0.1l0.7-0.2l-0.4,0.6l-2.6,3.8l-0.1,0.1h-0.1c-1.7-0.2-3.3-0.2-5,0h-0.2l-0.1-0.1
		c-0.9-1.2-1.8-2.5-2.7-3.8l-0.4-0.6l0.7,0.2h0.2l0.7,0.2l-0.7,0.3l-6.9,3l-0.7,0.3l0.4-0.6l0.1-0.1l0.4-0.7l0.1,0.7
		c0.3,1.5,0.5,3,0.8,4.5v0.2l-0.1,0.1c-0.7,0.6-1.4,1.2-2,1.8c-0.3,0.3-0.6,0.7-0.9,1l-0.5,0.6v0.1l0,0H364
		c-0.1,0.1-0.4-0.2-0.3-0.1l0,0l0,0c0,0,0-0.1,0-0.1c0-0.1,0.1-0.2,0.1-0.3l0.2-0.3c0.9-1.2,1.9-2.2,3-3.1l0.7-0.6l-0.3,0.9v0.1
		l-0.3,0.9l-0.2-0.9c-0.3-1.6-0.6-3.1-0.9-4.6v-0.2l0.2-0.1l7.1-3.1l0.2-0.1l0.1,0.2l2.8,3.8l0.5,0.8l-0.9-0.4l-0.1-0.1l-0.9-0.4
		l0.9-0.1c1.7-0.2,3.3-0.3,5-0.1l0.9,0.1l-0.9,0.4l-0.1,0.1l-0.8,0.4l0.5-0.8l2.6-3.9l0.1-0.2l0.2,0.1l7.3,2.9l0.2,0.1v0.2
		c-0.2,1.6-0.5,3.2-0.7,4.7l-0.1,0.9l-0.3-0.8l-0.1-0.2l-0.3-0.8l0.7,0.5c1.4,1,2.6,2.2,3.6,3.5l0.5,0.7l-0.8-0.3l-0.2-0.1l-0.8-0.3
		l0.9-0.2l4.6-0.9h0.2l0.1,0.2l3.1,7.2l0.1,0.2l-0.2,0.1l-3.8,2.8l-0.7,0.5l0.3-0.8l0.1-0.2l0.3-0.8l0.1,0.9c0.2,1.7,0.3,3.3,0.1,5
		l-0.1,0.8l-0.4-0.8l-0.1-0.2l-0.4-0.8l0.7,0.5l3.9,2.7l0.2,0.1l-0.1,0.2l-2.9,7.4l-0.1,0.2h-0.2l-4.7-0.7l-0.8-0.1l0.8-0.3l0.2-0.1
		l0.7-0.3l-0.5,0.6c-1,1.4-2.2,2.6-3.5,3.6l-0.6,0.5l0.3-0.7l0.1-0.2l0.3-0.7l0.1,0.8c0.3,1.6,0.6,3.2,0.9,4.7v0.2l-0.1,0.1
		l-7.3,3.1l-0.1,0.1l-0.1-0.1l-2.8-3.8l-0.4-0.6l0.7,0.3l0.2,0.1l0.7,0.3l-0.7,0.1c-1.7,0.2-3.3,0.3-5,0.1l-0.7-0.1l0.6-0.3l0.2-0.1
		l0.6-0.3l-0.4,0.6c-0.9,1.4-1.9,2.7-2.7,3.9l-0.1,0.1l-0.1-0.1l-7.3-2.9l-0.1-0.1v-0.1c0.3-1.6,0.5-3.2,0.8-4.7l0.1-0.6l0.2,0.6
		l0.1,0.2l0.2,0.6l-0.5-0.4c-1.3-1-2.6-2.2-3.6-3.5l-0.4-0.4l0.5,0.2l0.2,0.1l0.5,0.2l-0.6,0.1l-4.6,0.8h-0.1l0-0.1
		c-1.1-2.5-2.1-4.9-3.1-7.2l0-0.1l0.1-0.1l3.8-2.7l0.4-0.3l-0.2,0.4l-0.1,0.1l-0.2,0.4l-0.1-0.4c-0.2-1.7-0.3-3.3,0-5l0-0.4l0.2,0.4
		l0.1,0.1l0.2,0.4l-0.3-0.2l-3.8-2.7l-0.1-0.1V189l2.9-7.1l0,0l0,0l3.4,0.6l0.9,0.2L363.9,182.9z"/>
	<path class="st1" d="M129.7,214.6c0.3-0.6,0.7-1.2,1.2-1.7l-0.7-1.8l2.7-1.7l1.4,1.3c0.6-0.2,1.3-0.3,2-0.4l0.8-1.8l3.1,0.7v1.9
		c0.6,0.3,1.2,0.7,1.7,1.2l1.8-0.7l1.7,2.7l-1.4,1.4c0.2,0.7,0.3,1.4,0.4,2.1l1.8,0.8l-0.7,3.1h-1.9c-0.3,0.6-0.7,1.2-1.2,1.7
		l0.7,1.8l-2.6,1.8l-1.4-1.3c-0.6,0.2-1.3,0.3-2,0.4l-0.8,1.8l-3.1-0.7v-1.9c-0.6-0.3-1.2-0.7-1.7-1.2l-1.8,0.7l-1.8-2.7l1.3-1.4
		c-0.2-0.7-0.3-1.4-0.4-2.1l-1.8-0.8l0.7-3.1L129.7,214.6L129.7,214.6z M133.4,217.3c-0.4,1.9,0.8,3.7,2.6,4.1
		c1.9,0.4,3.7-0.8,4.1-2.6c0.4-1.9-0.8-3.7-2.6-4.1c0,0,0,0,0,0C135.6,214.3,133.8,215.4,133.4,217.3z"/>
	<path class="st1" d="M133.4,217.3c0-0.3,0.1-0.6,0.2-0.8c0.3-0.7,0.9-1.3,1.6-1.6c0.5-0.2,1-0.4,1.6-0.4c0.6,0,1.2,0.2,1.8,0.5
		c0.3,0.2,0.5,0.4,0.8,0.6c0.2,0.3,0.4,0.6,0.6,0.9c0.3,0.7,0.4,1.4,0.2,2.2c-0.2,0.7-0.5,1.4-1.1,1.9c-0.3,0.2-0.6,0.4-0.9,0.6
		c-0.3,0.1-0.7,0.2-1,0.3c-0.6,0.1-1.3,0-1.8-0.2c-0.5-0.2-0.9-0.6-1.3-1c-0.5-0.6-0.8-1.4-0.8-2.1
		C133.3,217.8,133.3,217.5,133.4,217.3c0,0,0,0.3,0,0.8c0,0.8,0.3,1.5,0.8,2.1c0.3,0.4,0.8,0.7,1.2,0.9c0.6,0.2,1.2,0.3,1.8,0.2
		c0.3,0,0.6-0.1,0.9-0.3c0.3-0.1,0.6-0.3,0.8-0.6c1.1-1,1.4-2.5,0.8-3.9c-0.1-0.3-0.3-0.6-0.5-0.8c-0.2-0.2-0.5-0.4-0.7-0.6
		c-0.5-0.3-1.1-0.5-1.7-0.5c-1.3,0-2.5,0.7-3.1,1.9C133.5,217,133.4,217.3,133.4,217.3z"/>
	<path class="st1" d="M129.7,214.6h-0.5h-1.4l0,0c-0.2,0.8-0.4,1.9-0.7,3.1l0,0l1.8,0.8l0,0l0,0c0,0.7,0.2,1.4,0.4,2l0,0l0,0
		L128,222v-0.1c0.5,0.9,1.1,1.7,1.7,2.7h-0.1l1.8-0.7l0,0l0,0c0.5,0.5,1.1,0.9,1.7,1.2l0,0v0.1c0,0.6,0,1.3,0,1.9l-0.1-0.1l3.1,0.7
		l-0.1,0.1l0.8-1.8v-0.1h0.1c0.7,0,1.4-0.2,2-0.4h0.1l0,0l1.4,1.4h-0.1l2.7-1.7v0.1l-0.7-1.8v-0.1l0,0c0.5-0.5,0.9-1.1,1.2-1.7l0,0
		v-0.1h0.1h1.9l-0.1,0.1c0.2-1.1,0.4-2.1,0.7-3.1l0.1,0.1l-1.8-0.8h-0.1v-0.1c0-0.7-0.2-1.4-0.4-2v-0.1l0,0c0.5-0.5,0.9-0.9,1.4-1.4
		v0.1c-0.6-0.9-1.2-1.8-1.7-2.7h0.1l-1.8,0.7h-0.1l0,0c-0.5-0.5-1.1-0.9-1.7-1.2H140v-0.1c0-0.7,0-1.3,0-1.9l0.1,0.1l-3.1-0.7
		l0.1-0.1l-0.8,1.8l0,0l0,0c-0.7,0-1.4,0.2-2,0.4l0,0l0,0c-0.5-0.5-0.9-0.9-1.4-1.4h0.1l-2.7,1.7V211l0.7,1.8l0,0l0,0
		c-0.4,0.4-0.7,0.8-0.9,1.2l-0.2,0.3L129.7,214.6c0.1-0.1,0.1-0.2,0.1-0.2l0.2-0.3c0.3-0.5,0.6-0.9,0.9-1.3l0,0
		c-0.2-0.5-0.4-1.1-0.7-1.8l0,0l0,0c0.8-0.5,1.6-1.1,2.7-1.8l0,0l0,0l1.4,1.4h-0.1c0.7-0.2,1.4-0.4,2.1-0.4h-0.1
		c0.3-0.6,0.5-1.1,0.8-1.8v-0.1h0.1l3.1,0.7h0.1v0.1v1.9V211c0.6,0.3,1.2,0.7,1.7,1.2H142l1.8-0.7h0.1v0.1c0.6,0.9,1.1,1.8,1.7,2.7
		l0.1,0.1h-0.1l-1.3,1.4v-0.1c0.2,0.7,0.4,1.4,0.4,2.1l-0.1-0.1l1.8,0.8h0.1v0.1c-0.2,1-0.4,2.1-0.7,3.1v0.1h-0.1h-1.9l0.1-0.1l0,0
		c-0.3,0.6-0.7,1.2-1.2,1.7v-0.1c0.2,0.6,0.4,1.2,0.7,1.8v0.1h-0.1l-2.6,1.9l-0.1,0.1l-0.1-0.1l-1.4-1.3h0.1
		c-0.7,0.2-1.4,0.3-2.1,0.4l0.1-0.1l-0.8,1.8v0.1h-0.1l-3.1-0.7h-0.1v-0.1c0-0.7,0-1.3,0-1.9v0.1c-0.6-0.3-1.2-0.7-1.7-1.2h0.1
		l-1.8,0.7h-0.1l0,0l-1.8-2.7v-0.1l0,0l1.4-1.4v0.1c-0.2-0.7-0.3-1.4-0.4-2.1v0.1l-1.8-0.8l0,0l0,0c0.3-1.3,0.5-2.3,0.7-3.1l0,0h2
		L129.7,214.6z"/>
	<path class="st1" d="M415.4,191.2c0.4-0.6,0.9-1.1,1.5-1.5l-0.4-1.9l2.9-1.3l1.1,1.6c0.7-0.1,1.4-0.1,2.1,0l1.1-1.6l3,1.2l-0.3,1.9
		c0.6,0.4,1.1,0.9,1.5,1.4l1.9-0.4l1.3,2.9l-1.6,1.1c0.1,0.7,0.1,1.4,0,2.1l1.6,1.1l-1.2,3l-1.9-0.3c-0.4,0.6-0.9,1.1-1.5,1.5
		l0.4,1.9l-2.9,1.2l-1.1-1.6c-0.7,0.1-1.4,0.1-2.1,0l-1.1,1.6l-3-1.2l0.3-1.9c-0.6-0.4-1.1-0.9-1.5-1.4l-1.9,0.4l-1.3-2.9l1.5-1.1
		c-0.1-0.7-0.1-1.4,0-2.1l-1.6-1.1l1.2-3L415.4,191.2L415.4,191.2z M418.6,194.5c-0.7,1.8,0.2,3.7,1.9,4.4c1.8,0.7,3.7-0.2,4.4-1.9
		c0.7-1.8-0.2-3.7-1.9-4.4C421.3,191.9,419.3,192.7,418.6,194.5C418.6,194.5,418.6,194.5,418.6,194.5z"/>
	<path class="st1" d="M418.6,194.5c0.1-0.3,0.2-0.5,0.4-0.8c0.4-0.6,1.1-1.1,1.9-1.3c0.5-0.1,1.1-0.2,1.6-0.1c1,0.2,1.8,0.8,2.3,1.6
		c0.2,0.3,0.3,0.6,0.4,1c0.2,0.7,0.1,1.5-0.1,2.2c-0.3,0.7-0.8,1.3-1.4,1.7c-0.6,0.4-1.3,0.6-2,0.5c-0.6,0-1.2-0.2-1.8-0.6
		c-1.1-0.7-1.8-2.1-1.6-3.4C418.3,195.1,418.4,194.8,418.6,194.5c-0.1,0.3-0.2,0.6-0.2,0.8c-0.1,0.8,0.1,1.5,0.5,2.2
		c0.3,0.4,0.6,0.8,1.1,1.1c0.5,0.3,1.1,0.5,1.7,0.5c0.7,0,1.3-0.2,1.9-0.5c0.6-0.4,1.1-0.9,1.3-1.6c0.3-0.7,0.3-1.4,0.1-2.1
		c-0.2-0.6-0.5-1.2-1-1.7c-1.4-1.2-3.5-1.1-4.8,0.3c-0.1,0.1-0.1,0.2-0.2,0.2C418.7,194.2,418.6,194.5,418.6,194.5z"/>
	<path class="st1" d="M415.4,191.2h-0.1l-0.4-0.1l-1.4-0.2l0,0c-0.3,0.8-0.7,1.8-1.2,3v-0.1l1.6,1.1l0,0l0,0c-0.1,0.7-0.1,1.4,0,2.1
		l0,0l0,0l-1.5,1.1v-0.1l1.3,2.9h-0.1l1.9-0.4h0l0,0c0.4,0.5,0.9,1,1.5,1.4l0,0v0.1c-0.1,0.6-0.2,1.2-0.3,1.9l0-0.1l3,1.2h-0.1
		l1.1-1.6l0,0h0.1c0.7,0.1,1.4,0.1,2,0h0.1l0,0l1.1,1.6h-0.1l2.9-1.3l-0.1,0.1c-0.1-0.6-0.2-1.2-0.4-1.9V202h0
		c0.5-0.4,1-0.9,1.4-1.5l0,0l0,0h0.2l1.9,0.3l-0.1,0.1l1.2-3v0.1l-1.6-1.1h0l0,0c0.1-0.7,0.1-1.4,0-2.1v-0.1h0l1.6-1.1v0.1l-1.3-2.9
		l0.1,0.1l-1.9,0.4h0l0,0c-0.4-0.5-0.9-1-1.5-1.4l0,0l0,0c0.1-0.7,0.2-1.3,0.3-1.9v0.1l-3-1.2h0.1l-1.1,1.6l0,0l0,0
		c-0.7-0.1-1.4-0.1-2.1,0l0,0l0,0l-1.1-1.6h0.1l-2.9,1.2v-0.1c0.1,0.8,0.2,1.4,0.3,1.9l0,0l0,0c-0.4,0.3-0.8,0.7-1.1,1.1l-0.2,0.3
		l-0.1,0.1l0.1-0.1l0.2-0.3c0.3-0.4,0.7-0.8,1.1-1.1l0,0c-0.1-0.5-0.2-1.1-0.4-1.9l0,0l0,0l2.9-1.3l0,0l0,0l1.1,1.6h-0.1
		c0.7-0.1,1.4-0.1,2.1,0h-0.1c0.3-0.5,0.7-1,1.1-1.6v-0.1h0.1l3,1.2h0.1v0.1l-0.3,1.9v-0.1c0.6,0.4,1.1,0.8,1.5,1.3h-0.1l1.9-0.4
		h0.1v0.1l1.3,2.9v0.1h-0.1l-1.6,1.1v-0.1c0.1,0.7,0.1,1.4,0,2.1v-0.1l1.6,1.1h0.1v0.1l-1.2,3v0.1h-0.1l-1.9-0.3h0.1l0,0
		c-0.4,0.6-0.9,1.1-1.5,1.5v-0.1l0.4,1.9l0,0h-0.1l-2.9,1.3h-0.1l0-0.1l-1.1-1.6h0.1c-0.7,0.1-1.4,0.1-2.1,0h0.1l-1.1,1.6v0.1h-0.1
		l-3-1.2h-0.1v-0.1c0.1-0.7,0.2-1.3,0.3-1.9v0.1c-0.6-0.4-1.1-0.9-1.5-1.5h0.1l-1.9,0.4h-0.1v-0.1l-1.3-2.9v-0.1l0,0l1.6-1.1v0.1
		c-0.1-0.7-0.1-1.4,0-2.1v0.1l-1.6-1.1l0,0l0,0c0.5-1.2,0.9-2.2,1.2-3l0,0l0,0l1.4,0.2l0.4,0.1L415.4,191.2z"/>
	<path class="st2" d="M401.1,149.8c0.7-0.9,1.5-1.8,2.4-2.5l-0.6-3.2l4.9-2.1l1.9,2.6c1.2-0.2,2.3-0.2,3.5,0l1.8-2.7l5,2l-0.5,3.2
		c0.9,0.7,1.8,1.5,2.5,2.4l3.2-0.6l2.1,4.9l-2.6,1.9c0.2,1.2,0.2,2.3,0,3.5l2.7,1.8l-2,5l-3.2-0.5c-0.7,0.9-1.5,1.8-2.4,2.5l0.6,3.2
		l-4.9,2.1l-1.9-2.6c-1.2,0.2-2.3,0.2-3.5,0l-1.8,2.6l-5-2l0.5-3.2c-0.9-0.7-1.8-1.5-2.5-2.4l-3.2,0.6l-2.1-4.9l2.6-1.9
		c-0.2-1.2-0.2-2.3,0-3.5l-2.7-1.8l2-5L401.1,149.8L401.1,149.8z M406.4,155.3c-1.2,2.9,0.3,6.3,3.2,7.4c2.9,1.2,6.3-0.3,7.4-3.2
		c1.2-2.9-0.3-6.3-3.2-7.4c0,0,0,0,0,0C410.9,151,407.6,152.4,406.4,155.3C406.4,155.3,406.4,155.3,406.4,155.3L406.4,155.3z"/>
	<path class="st2" d="M406.4,155.3c0.1-0.5,0.4-0.9,0.6-1.3c1.8-2.6,5.5-3.2,8.1-1.4c0.2,0.1,0.3,0.3,0.5,0.4
		c0.4,0.4,0.8,0.8,1.1,1.3c0.3,0.5,0.6,1,0.7,1.6c0.7,2.5-0.4,5.1-2.6,6.5c-0.5,0.3-1,0.5-1.6,0.7c-0.5,0.2-1.1,0.2-1.7,0.2
		c-2-0.1-3.8-1.1-4.8-2.9c-0.7-1.1-0.9-2.5-0.7-3.8C406.1,156.2,406.2,155.8,406.4,155.3c0,0-0.2,0.5-0.3,1.4
		c-0.4,3.1,1.8,5.9,4.9,6.3c0.2,0,0.3,0,0.5,0c0.5,0,1.1,0,1.6-0.2c0.5-0.1,1.1-0.4,1.5-0.7c1-0.6,1.8-1.6,2.2-2.6
		c0.4-1.1,0.5-2.3,0.2-3.5c-0.1-0.5-0.4-1.1-0.6-1.5c-0.8-1.3-2.1-2.2-3.7-2.6c-0.9-0.2-1.7-0.1-2.6,0.1c-1.2,0.3-2.3,1.1-3.1,2.1
		C406.6,154.9,406.5,155.4,406.4,155.3z"/>
	<path class="st2" d="M401.1,149.8h-0.2l-0.6-0.1l-2.4-0.4h0.1c-0.5,1.3-1.1,3-2,5v-0.1l2.7,1.8h0v0.1c-0.1,1.1-0.1,2.3,0.1,3.4v0.1
		h0l-2.6,1.9v-0.1c0.7,1.6,1.4,3.2,2.1,4.9l-0.1-0.1l3.2-0.6h0.1l0,0.1c0.7,0.9,1.5,1.7,2.5,2.4h0.1v0.1c-0.1,1-0.3,2.1-0.5,3.2
		l-0.1-0.1l5,2l-0.2,0.1c0.6-0.8,1.2-1.7,1.8-2.7v-0.1h0.1c1.1,0.2,2.3,0.2,3.4,0h0.1l0,0.1l1.9,2.6l-0.2-0.1l4.9-2.1l-0.1,0.2
		c-0.2-1-0.4-2.1-0.6-3.2V168l0.1-0.1c0.9-0.7,1.7-1.5,2.4-2.5l0,0l0.1-0.1h0.1l3.2,0.5l-0.2,0.1c0.7-1.7,1.3-3.3,2-5l0.1,0.2
		l-2.6-1.8l-0.1-0.1v-0.1c0.1-1.1,0.1-2.3,0-3.4v-0.1h0.1l2.6-1.9l0,0.2c-0.7-1.7-1.4-3.3-2.1-4.9l0.2,0.1l-3.2,0.6H422l0-0.1
		c-0.7-0.9-1.5-1.7-2.5-2.4l-0.1-0.1v-0.1c0.2-1.1,0.3-2.1,0.5-3.2l0.1,0.1l-5-2h0.1l-1.8,2.6v0.1h-0.1c-1.1-0.2-2.3-0.2-3.5,0h-0.1
		v-0.1l-1.9-2.6h0.1l-4.9,2.1v-0.1c0.2,1.3,0.4,2.3,0.6,3.2l0,0l0,0c-0.7,0.5-1.3,1.1-1.9,1.8l-0.4,0.5
		C401.2,149.7,401.1,149.8,401.1,149.8l0.1-0.2l0.4-0.5c0.6-0.7,1.2-1.3,1.9-1.8l0,0c-0.2-0.9-0.4-1.9-0.6-3.2V144l0,0l4.9-2.1h0.1
		l0,0.1l1.9,2.6h-0.1c1.2-0.2,2.3-0.2,3.5-0.1l-0.1,0.1l1.8-2.7l0-0.1h0.1l5,2h0.1v0.1c-0.2,1-0.3,2.1-0.5,3.2l-0.1-0.1
		c1,0.7,1.8,1.5,2.5,2.4l-0.1-0.1l3.2-0.6h0.1l0,0.1c0.7,1.6,1.4,3.2,2.1,4.9v0.1l-0.1,0.1l-2.6,1.9l0.1-0.1
		c0.2,1.2,0.2,2.3,0.1,3.5l-0.1-0.1l2.7,1.8l0.1,0.1v0.1c-0.7,1.6-1.3,3.3-2,5l0,0.1h-0.1l-3.2-0.5l0.2-0.1l0,0
		c-0.7,0.9-1.5,1.8-2.5,2.5l0.1-0.2c0.2,1.1,0.4,2.2,0.6,3.2v0.1h-0.1l-4.9,2.1h-0.1l-0.1-0.1l-1.9-2.6l0.1,0.1
		c-1.2,0.2-2.4,0.2-3.5,0l0.1-0.1l-1.8,2.7l-0.1,0.1h-0.1l-5-2l-0.1-0.1v-0.1c0.2-1.1,0.4-2.2,0.5-3.2l0.1,0.1
		c-0.9-0.7-1.8-1.5-2.5-2.5l0.1,0.1l-3.2,0.6H398v-0.1l-2.1-4.9v-0.1h0.1l2.6-1.9v0.1c-0.2-1.2-0.2-2.3,0-3.5v0.1l-2.6-1.8h-0.1
		v-0.1c0.8-2,1.5-3.7,2-4.9l0,0l0,0l2.4,0.4l0.6,0.1L401.1,149.8z"/>
	<path class="st1" d="M188.5,387c0,0,0-0.5,0-1.3s0-2.2,0-3.9c0-3.4,0-8.4,0-14.7c0-12.8-0.1-31.1-0.1-53.7l0.2,0.2l-127.3,0.1l0,0
		l0.3-0.3c0,26.1,0,51,0,73.6l-0.2-0.2l91.6,0.1l26.3,0.1h7h1.8h0.6H188h-1.8h-7l-26.2,0.1l-91.7,0.1H61v-0.2c0-22.7,0-47.6,0-73.6
		V313h0.3l127.3,0.1h0.2v0.2c0,22.6-0.1,41.1-0.1,53.8c0,6.4,0,11.3-0.1,14.7c0,1.7,0,3,0,3.8S188.5,387,188.5,387z"/>
	<path class="st1" d="M188.6,322.3c0,0.1-28.5,0.3-63.6,0.3s-63.6-0.1-63.6-0.3s28.5-0.3,63.6-0.3S188.6,322.2,188.6,322.3z"/>
	<rect x="72.2" y="334.5" class="st2" width="39.3" height="39.3"/>
	<path class="st1" d="M179.3,341c-0.2,0-0.4,0-0.6,0l-1.7,0l-6.1,0.1l-20.1,0.1l-20.1-0.1l-6.1-0.1l-1.7,0c-0.2,0-0.4,0-0.6,0
		c0.2,0,0.4-0.1,0.6-0.1h1.7l6.1-0.1l20.1-0.1l20.1,0.1l6.1,0.1h1.7C178.9,340.9,179.1,341,179.3,341z"/>
	<path class="st1" d="M180.5,349.7c-0.2,0-0.4,0-0.6,0l-1.7,0l-6.2,0.1l-20.6,0.1l-20.6-0.1l-6.2-0.1l-1.7,0c-0.2,0-0.4,0-0.6,0
		c0.2,0,0.4-0.1,0.6,0l1.7,0l6.2-0.1l20.6-0.1l20.6,0.1l6.2,0.1l1.7,0C180.1,349.7,180.3,349.7,180.5,349.7z"/>
	<path class="st1" d="M180.5,358.5c-0.2,0-0.4,0.1-0.6,0.1l-1.7,0l-6.2,0.1l-20.6,0.1l-20.6-0.1l-6.2-0.1l-1.7,0
		c-0.2,0-0.4,0-0.6-0.1c0.2,0,0.4,0,0.6,0h1.7l6.2-0.1l20.6-0.1l20.6,0.1l6.2,0.1h1.7C180.1,358.5,180.3,358.5,180.5,358.5z"/>
	<path class="st1" d="M180.5,367.3c-0.2,0-0.4,0.1-0.6,0h-1.7l-6.2,0.1l-20.6,0.1l-20.6-0.1l-6.2-0.1h-1.7c-0.2,0-0.4,0-0.6,0
		c0.2,0,0.4-0.1,0.6,0l1.7,0l6.2-0.1l20.6-0.1l20.6,0.1l6.2,0.1l1.7,0C180.1,367.2,180.3,367.3,180.5,367.3z"/>
	<path class="st3" d="M389.7,445.7c-0.8-3,1.2-6.1,3.5-8.2s4.9-4.1,6.1-7c1.9-4.7-0.6-10.8,2.6-14.7c1.9-2.3,5.3-3.1,7-5.5
		c0.8-1.4,1.3-2.9,1.5-4.4c1.8-7.8,5.7-15,11.2-20.8c0.3,7-1.2,13.9-4.5,20.1c-1.3,2.5-2.9,4.9-3.4,7.6c-0.7,4.5,1.8,9.1,0.6,13.5
		c-1.3,5-7,8.4-7.3,13.5c-0.2,4.4,3.5,8.2,3.2,12.6c-0.3,1.9-0.9,3.6-2,5.2c-3.4,5.6-8.4,9.5-16,9.3l-9.2,0.3L389.7,445.7z"/>
	<path class="st1" d="M381.4,467.1c-0.8,0.1-1.7,0.1-2.5-0.1c-1-0.2-2-0.4-3-0.8c-1.3-0.5-2.6-1.1-3.7-2c-0.7-0.5-1.2-1.2-1.5-2
		c-0.3-0.9-0.4-1.8-0.4-2.8c0-1-0.1-2-0.2-3c-0.2-1.1-0.6-2.1-1.1-3c-1.1-1.9-2.9-3.7-3.5-6.3s-0.1-5.3,0.3-8.1s0.9-5.8-0.2-8.7
		s-3-5.5-4-8.8s-0.5-6.8-0.7-10.3c-0.1-1.8-0.4-3.5-1.2-5.1c-0.7-1.6-1.8-3.2-2.6-4.9c-1.6-3.5-1.9-7.4-2.3-11.3
		c-0.2-2-0.4-3.9-0.6-5.9c-0.1-2-0.5-4-1-5.9c-0.6-2-1.3-3.9-2.2-5.7c-0.4-1-0.8-2-1.1-3c-0.1-1.1-0.2-2.1-0.3-3.2
		c-0.1-2.1,0-4.3,0.3-6.4c0.3-2.1,0.7-4.2,0.9-6.4c0-0.1,0-0.2,0-0.4l0-0.4l0.4,0.2c2,1,3.6,2.5,5,4.2c1.3,1.7,2.3,3.6,3,5.6
		c1.5,4,2,8.1,2.8,12.1c0.6,3.9,1.9,7.7,3.8,11.1c1,1.6,2.2,3.2,3.3,4.8c1.1,1.6,1.9,3.4,2.3,5.3c0.5,3.9-1.6,7.3-1.2,10.8
		c0.2,1.7,0.8,3.3,1.7,4.8c0.8,1.5,1.8,2.9,2.7,4.2c0.9,1.3,1.8,2.8,2.5,4.3c0.6,1.5,1,3,1.1,4.6c0.2,3.1-0.2,6.1,0,8.9
		c0.2,2.7,1,5.2,2.2,7.6c1.1,2.3,2.3,4.3,3.4,6.3c0.5,1,1,2,1.4,3c0.4,0.9,0.6,1.9,0.8,2.9c0.2,1.7,0.2,3.5,0,5.3
		c-0.3,2.4-1.2,4.8-2.7,6.7c-0.2,0.3-0.5,0.6-0.8,0.8c-0.2,0.2-0.4,0.4-0.6,0.5L381.4,467.1c0.6-0.5,1.3-1.1,1.8-1.7
		c1.4-1.9,2.3-4.3,2.5-6.7c0.2-1.7,0.2-3.5-0.1-5.2c-0.2-1-0.4-1.9-0.8-2.9c-0.4-1-0.9-2-1.4-2.9c-1-2-2.3-4-3.4-6.3
		c-1.3-2.4-2.1-5-2.3-7.7c-0.2-2.9,0.2-5.8,0-8.9c-0.1-1.5-0.5-3.1-1.1-4.5c-0.7-1.5-1.5-2.9-2.4-4.2c-0.9-1.4-1.9-2.8-2.8-4.3
		c-0.9-1.5-1.5-3.2-1.7-5c-0.4-3.7,1.7-7.1,1.2-10.8c-0.4-1.8-1.1-3.5-2.2-5c-1-1.6-2.3-3.1-3.3-4.8c-1.9-3.5-3.2-7.4-3.8-11.4
		c-0.8-4-1.3-8.1-2.8-12c-0.7-2-1.7-3.8-2.9-5.5c-1.2-1.7-2.9-3.1-4.7-4l0.4-0.2c0,0.1,0,0.2,0,0.4c-0.2,2.2-0.6,4.3-0.9,6.4
		c-0.3,2.1-0.4,4.2-0.3,6.3c0,1,0.1,2.1,0.3,3.1c0.3,1,0.6,2,1,2.9c0.8,1.9,1.6,3.8,2.2,5.8c0.5,2,0.9,4,1,6c0.2,2,0.4,4,0.6,5.9
		c0.4,3.9,0.7,7.8,2.2,11.1c0.8,1.7,1.8,3.2,2.6,4.9c0.7,1.7,1.1,3.5,1.2,5.3c0.2,3.6-0.3,7,0.6,10.2s2.9,5.8,3.9,8.8
		s0.6,6.1,0.1,8.9s-0.9,5.5-0.3,7.9s2.3,4.3,3.4,6.3c0.6,0.9,1,2,1.1,3.1c0.1,1,0.2,2,0.2,3c0,0.9,0.1,1.8,0.4,2.7
		c0.3,0.8,0.8,1.4,1.4,2c1.1,0.9,2.3,1.6,3.6,2.1c1,0.4,2,0.6,3,0.8c0.6,0.1,1.2,0.2,1.9,0.2L381.4,467.1z"/>
	<path class="st1" d="M352.8,358.2c0,0.1,0.1,0.2,0.1,0.3c0.1,0.2,0.1,0.5,0.2,0.8c0.2,0.7,0.4,1.8,0.7,3.2s1.2,2.9,1.9,4.8
		s1.5,4.1,2.2,6.6s1.3,5.2,1.9,8.1c0.5,3.1,1.5,6.1,2.9,9c0.7,1.5,1.6,3,2.2,4.7c0.7,1.7,1.1,3.5,1.3,5.3c0.5,3.8,1.1,7.5,1.9,11.2
		l5.1,21.4c1.6,6.5,3.1,12.5,4.3,17.4s2.1,8.9,2.8,11.8l0.7,3.2c0.1,0.3,0.1,0.6,0.2,0.8c0,0.1,0,0.2,0,0.3c0-0.1-0.1-0.2-0.1-0.3
		L381,466c-0.2-0.8-0.5-1.8-0.8-3.2c-0.7-2.8-1.8-6.8-3-11.7s-2.8-10.9-4.4-17.4s-3.3-13.8-5.1-21.4c-0.8-3.7-1.5-7.5-1.9-11.2
		c-0.2-1.8-0.6-3.5-1.2-5.2c-0.6-1.6-1.5-3.1-2.2-4.7c-1.4-2.9-2.4-6-2.9-9.2c-0.6-2.9-1.2-5.7-1.9-8.1s-1.4-4.7-2.1-6.6
		s-1.5-3.5-1.8-4.9s-0.5-2.5-0.6-3.2c0-0.3-0.1-0.6-0.1-0.8C352.8,358.4,352.8,358.3,352.8,358.2z"/>
	<path class="st1" d="M379.7,467.1c-6-3.6-7.7-14.5-5.1-21s7-12.5,7.7-19.5c0.5-5.4-1.2-10.9,0.1-16.1c1.7-7.1,8.7-12.5,8.6-19.8
		c0-4.1-2.3-7.9-2.1-12c0.3-5,4.1-9,6.5-13.3c3.7-6.7,4-14.7,5.2-22.3s4.2-15.6,10.9-19.3c1,6.4,2.6,10.8,2,19.5
		c-0.2,3.1-3.9,9.1-4.4,15.9c-0.3,4.1-0.5,8.2-0.8,12.3s-0.5,8-2,11.8c-1.1,2.9-2.9,5.4-3.7,8.4c-1.6,5.5,0.4,11.6-0.9,17.2
		c-1.1,4.8-4.4,8.8-5.1,13.7c-1,6.8,3.4,13.9,1.1,20.3c-1.1,3.2-3.8,5.8-4.6,9.1c-0.6,2.6,0,5.3-0.5,7.9
		C391.9,464,383.9,467.5,379.7,467.1"/>
	<path class="st4" d="M409.9,330.1c0,0.1,0,0.2,0,0.4c0,0.3-0.1,0.6-0.1,1.1c-0.1,0.9-0.3,2.3-0.6,4s-1.3,3.8-2,6.1
		s-1.6,5.2-2.3,8.2s-1.3,6.5-1.9,10.2s-1.3,7.7-3.1,11.5c-0.9,1.9-1.8,3.9-2.5,5.9c-0.7,2.1-1.1,4.3-1.3,6.5c-0.4,4.7-1,9.4-1.9,14
		l-5.4,26.9c-1.7,8.2-3.3,15.6-4.6,21.8s-2.4,11.2-3.1,14.7l-0.9,4c-0.1,0.4-0.2,0.8-0.2,1s-0.1,0.6-0.1,0.6c0-0.2,0-0.4,0-0.6
		l0.2-1c0.2-1,0.5-2.3,0.8-4c0.7-3.5,1.7-8.5,3-14.8s2.8-13.6,4.5-21.9s3.4-17.3,5.3-26.8c0.9-4.6,1.5-9.3,1.9-14
		c0.2-2.3,0.6-4.5,1.4-6.6c0.8-2.1,1.7-4,2.6-5.9c1.8-3.8,2.5-7.7,3.2-11.4s1.3-7.1,2-10.2s1.5-5.9,2.4-8.2s1.7-4.4,2.1-6.1
		s0.5-3.1,0.7-4c0.1-0.4,0.1-0.8,0.2-1C409.9,330.4,409.9,330.3,409.9,330.1z"/>
</g>
<g id="freepik--Floor--inject-18">
	<path class="st5" d="M463.1,466.9c0,0.1-95.4,0.3-213.1,0.3S36.9,467,36.9,466.9s95.4-0.3,213.1-0.3S463.1,466.7,463.1,466.9z"/>
</g>
<g id="freepik--Character--inject-18">
	<path class="st6" d="M267.2,432.4c0.2-0.1,0.5-0.1,0.6,0.1c0.1,0.2,0.1,0.5-0.1,0.6c-0.1,0.1-0.3,0.1-0.4,0
		c-0.2-0.1-0.3-0.4-0.2-0.6C267.1,432.5,267.1,432.5,267.2,432.4"/>
	<path class="st7" d="M355,137.1l15.3,6.9c0,0-24,34.1-28.9,39.6S288.1,196,288.1,196l-2.3-20.2l41.2-7L355,137.1z"/>
	<path class="st6" d="M339.3,185.2c-0.1,0-0.2-1.2-0.7-3.1c-0.3-1.1-0.7-2.2-1.2-3.2c-0.6-1.3-1.3-2.5-2.1-3.6
		c-0.8-1.1-1.8-2.2-2.8-3.1c-0.8-0.8-1.7-1.5-2.7-2.1c-1.6-1.1-2.8-1.6-2.7-1.6s0.3,0.1,0.8,0.3c0.7,0.3,1.4,0.6,2.1,1.1
		c1,0.6,1.9,1.3,2.8,2.1c1.1,1,2,2,2.9,3.2c0.8,1.2,1.5,2.4,2.1,3.7c0.5,1.1,0.8,2.2,1.1,3.3c0.2,0.8,0.3,1.5,0.4,2.3
		C339.3,184.7,339.3,185,339.3,185.2z"/>
	<path class="st6" d="M336.1,177.5c-0.5,0.2-1,0.4-1.5,0.5c-1,0.3-2.5,0.7-4.3,1.2c-3.6,1-8.6,2.2-14.2,3.4s-10.7,2.1-14.4,2.6
		c-1.9,0.3-3.4,0.5-4.4,0.6c-0.5,0.1-1.1,0.1-1.6,0.1c0.5-0.2,1.1-0.3,1.6-0.3l4.4-0.8c3.7-0.6,8.8-1.6,14.3-2.8s10.6-2.4,14.2-3.2
		l4.3-1.1C335,177.7,335.6,177.6,336.1,177.5z"/>
	<path class="st6" d="M359,139.3c0.1,0.1-6.1,7.3-13.9,16.1s-14.1,15.8-14.3,15.7s6.1-7.3,13.9-16.1S358.8,139.2,359,139.3z"/>
	<path class="st6" d="M339.5,163.6c0.2-0.1,0.5,0,0.6,0.2c0,0,0,0.1,0,0.1c0,0.2-0.1,0.4-0.4,0.5s-0.4-0.1-0.5-0.4
		C339.2,163.8,339.3,163.7,339.5,163.6"/>
	<path class="st6" d="M314.3,179.9c0.2-0.1,0.5,0,0.6,0.2c0,0,0,0.1,0.1,0.2c0,0.2-0.1,0.4-0.4,0.5c-0.2,0-0.4-0.1-0.5-0.4
		C314.1,180.1,314.2,180,314.3,179.9"/>
	<path class="st6" d="M326.4,177.2c0.2-0.1,0.5,0,0.6,0.2c0,0,0,0.1,0,0.1c0,0.2-0.2,0.4-0.4,0.4c0,0-0.1,0-0.1,0
		c-0.2-0.1-0.3-0.4-0.2-0.6C326.3,177.3,326.3,177.3,326.4,177.2"/>
	<path class="st6" d="M346.3,155.9c0.2-0.1,0.5,0,0.6,0.2c0,0,0,0.1,0.1,0.2c0,0.2-0.1,0.4-0.4,0.5c-0.2,0-0.4-0.1-0.5-0.4
		C346.1,156.2,346.2,156,346.3,155.9"/>
	<path class="st6" d="M353.5,147.8c0.2-0.1,0.5-0.1,0.6,0.1c0.1,0.2,0.1,0.5-0.1,0.6c-0.1,0.1-0.3,0.1-0.4,0
		c-0.2-0.1-0.3-0.4-0.2-0.6C353.4,147.9,353.4,147.8,353.5,147.8"/>
	<g class="st8">
		<path class="st6" d="M324.7,170.8c0.1,0.7-6.1,2.3-13.9,3.6s-14.2,1.7-14.3,1s6.1-2.3,13.9-3.6S324.5,170.1,324.7,170.8z"/>
	</g>
	<path class="st6" d="M303.9,181.8c0.2-0.1,0.5-0.1,0.6,0.1c0.1,0.2,0.1,0.5-0.1,0.6c-0.1,0.1-0.3,0.1-0.4,0
		c-0.2-0.1-0.3-0.4-0.2-0.6C303.8,181.8,303.8,181.8,303.9,181.8"/>
	<path class="st5" d="M281.5,172.8c4.3-1.4,9,0,11.9,3.5c2.7,3.5,3.6,8.2,2.3,12.5c-1.2,4.2-6.8,9.9-10.6,11.5"/>
	<path class="st7" d="M374.4,139.3c1.3-1.7,2.4-3.5,3.4-5.5c0.9-1.9,1.3-4.1,0.9-6.3c-0.4-2.2-1.8-4-3.8-4.8c-2.1-0.8-4.4,0-5.6,1.8
		l4.1-8c0.5-1,1-2.2,0.3-3.1c-0.7-0.8-1.9-0.9-2.8-0.3c-0.8,0.6-1.5,1.5-1.9,2.4l-6,11.3l-5.3-8.3c-0.5-0.8-1.3-1.8-2.3-1.6
		c-0.8,0.2-1.3,0.9-1.3,1.8c0.1,0.8,0.3,1.6,0.7,2.3c1.5,3.3,4.4,10.8,4.4,10.8L374.4,139.3z"/>
	<path class="st9" d="M285.1,199.7c-0.1-0.1,1.4-1.2,3.1-3.5c1-1.3,1.8-2.8,2.3-4.4c0.6-2,0.8-4,0.6-6.1c-0.3-3.7-1.5-7.4-3.5-10.5
		c-0.6-1-1.3-1.8-2.2-2.5c-0.4-0.2-0.7-0.4-1.1-0.5c0.1,0,0.2,0,0.3,0c0.3,0.1,0.6,0.2,0.9,0.3c1,0.6,1.8,1.5,2.4,2.5
		c2.2,3.2,3.5,6.8,3.8,10.7c0.2,2.1,0,4.3-0.6,6.3c-0.6,1.6-1.4,3.2-2.5,4.5c-0.7,0.9-1.5,1.7-2.4,2.5
		C285.8,199.3,285.4,199.5,285.1,199.7z"/>
	<path class="st5" d="M355,137.1c4.2,2.7,8.5,5,13,7.1c1.8,0.8,4,1.6,5.6,0.4c1.1-0.9,1.6-2.4,1.2-3.8c-0.4-1.4-1.1-2.6-2.1-3.7
		c-2.9-3.3-6.8-5.7-11-6.9c-1.5-0.5-3.1-0.6-4.6-0.4c-1.6,0.3-2.9,1.4-3.4,2.9C353.1,134.3,353.6,136.1,355,137.1"/>
	<path class="st9" d="M374.3,142.7c-0.1,0-0.7-1.2-2-2.9c-3.5-4.5-8.9-7.2-14.7-7.2c-2.2,0-3.5,0.3-3.5,0.2c0.3-0.1,0.6-0.2,0.9-0.3
		c0.9-0.2,1.7-0.3,2.6-0.3c5.9-0.2,11.5,2.6,15,7.4c0.5,0.7,1,1.4,1.4,2.2C374.1,142.1,374.2,142.4,374.3,142.7z"/>
	<path class="st5" d="M275.4,247c0.1,0.3-1.8,1.7-5.3,3.1c-2.1,0.9-4.2,1.6-6.3,2.1c-5.3,1.3-10.8,1.7-16.3,1.2
		c-2.2-0.2-4.4-0.6-6.6-1.1c-3.7-0.9-5.8-2-5.7-2.3s2.4,0.1,6,0.5c1.8,0.2,4,0.4,6.4,0.5c2.6,0.1,5.2,0.1,7.8-0.1
		c2.6-0.2,5.2-0.5,7.8-1c2.4-0.5,4.5-1,6.3-1.5C273.1,247.4,275.3,246.6,275.4,247z"/>
	<path class="st5" d="M274.1,252.5c0.1,0.3-1.7,1.3-5,2.4c-8.5,2.7-17.4,3.3-26.2,1.9c-3.3-0.6-5.3-1.3-5.2-1.6
		c0.1-0.8,8.3,0.4,18.3-0.4S273.9,251.8,274.1,252.5z"/>
	<path class="st7" d="M237.9,105.3c0,0-33,6.1-32.6,35.7s28.4,24.6,36.5,23.5c3.7-0.5,11-1.5,17.9-2.5c14.7-2.1,25.6-9.3,26.5-24.1
		c0.1-1.7,0-3.5-0.2-5.2C284,117.1,269.4,98.3,237.9,105.3z"/>
	<path class="st5" d="M273.5,134.9l-42.1,8.9c-4.4,0.9-8.8-1.9-9.7-6.3l0,0c-0.9-4.4,1.9-8.8,6.3-9.7l42.1-8.9
		c4.4-0.9,8.8,1.9,9.7,6.3l0,0C280.8,129.6,277.9,134,273.5,134.9C273.5,134.9,273.5,134.9,273.5,134.9z"/>
	<circle class="st6" cx="237.1" cy="135" r="2.6"/>
	<circle class="st6" cx="266.5" cy="128.7" r="2.6"/>
	<path class="st6" d="M250.8,120.9c-0.5-1-1-2-1.4-3c-1.1-2.4-2.4-4.7-4.1-6.7c-1.6-2.1-3.7-3.7-6.2-4.6c-1-0.3-2.1-0.6-3.2-0.8
		c0.3-0.1,0.6-0.1,0.9,0c0.8,0.1,1.6,0.2,2.4,0.5c2.6,0.9,4.8,2.5,6.5,4.7c1.7,2.1,3,4.4,4,6.9c0.4,1,0.7,1.7,0.8,2.3
		C250.6,120.3,250.7,120.6,250.8,120.9z"/>
	<path class="st6" d="M251.8,163.1c-0.1-0.1,0.9-1,2-2.7c1.5-2.3,2.5-4.8,2.9-7.5c0.3-2.7,0.3-5.4-0.1-8.1c-0.2-1.1-0.4-2.3-0.5-3.4
		c0.1,0.3,0.2,0.6,0.3,0.9c0.1,0.6,0.3,1.4,0.5,2.4c0.5,2.7,0.6,5.5,0.2,8.3c-0.4,2.8-1.5,5.4-3.1,7.7c-0.5,0.7-1,1.3-1.6,1.9
		C252.3,162.7,252.1,162.9,251.8,163.1z"/>
	<g class="st8">
		<path d="M282.5,150.2c-3.9-2.4-8.3-3.7-12.8-3.9c-4.5-0.2-9,0.1-13.5,0.9c-10.3,1.6-20.9,4-29.3,10.3c-2.5,1.7-4.4,4-5.7,6.6
			c0,0,4.4,1.8,13.3,1.2s27.1-3.8,27.1-3.8s9.4-1.6,14.6-5.5S282.5,150.2,282.5,150.2z"/>
	</g>
	<path class="st6" d="M282.4,124.4c0.2,0.5,0.3,1,0.4,1.5c0.2,1.5,0.1,3-0.4,4.5c-0.8,2.3-2.4,4.2-4.5,5.4c-2.4,1.5-5.5,2.3-8.9,3
		l-23.8,5.3l-6.9,1.5c-2.4,0.5-4.7,1.1-7.2,1.4c-2.6,0.5-5.2,0-7.5-1.3c-2.3-1.5-3.9-3.7-4.6-6.3c-0.7-2.6-0.4-5.4,0.9-7.8
		c1.2-2.3,3.2-4.1,5.6-5.2c1.2-0.4,2.4-0.8,3.6-1l3.6-0.8l6.9-1.6l12.7-3c4-0.8,7.6-2,11.1-2.7c1.6-0.3,3.3-0.6,4.9-0.7
		c1.5-0.1,3-0.1,4.4,0.2c2.4,0.3,4.6,1.3,6.5,2.7c1.2,0.9,2.1,2.1,2.8,3.5c0.2,0.4,0.3,0.7,0.4,1.1
		C282.3,124.2,282.4,124.3,282.4,124.4c0,0.1-0.2-0.5-0.6-1.4c-0.7-1.3-1.6-2.5-2.8-3.4c-1.9-1.4-4.1-2.3-6.4-2.6
		c-1.4-0.2-2.9-0.2-4.4-0.1c-1.6,0.1-3.3,0.4-4.9,0.7c-3.4,0.7-7,1.8-11,2.7l-12.7,3l-6.9,1.6l-3.6,0.8c-1.2,0.2-2.4,0.6-3.5,1
		c-2.3,1-4.2,2.7-5.4,4.9c-1.2,2.3-1.5,4.9-0.9,7.4c0.7,2.5,2.2,4.6,4.4,6c2.2,1.2,4.7,1.7,7.2,1.2c2.4-0.3,4.8-0.9,7.2-1.4l6.9-1.5
		l23.9-5.1c3.1-0.5,6.1-1.4,8.8-2.9c2-1.2,3.6-3,4.4-5.2c0.5-1.4,0.7-2.9,0.5-4.4C282.5,124.9,282.4,124.4,282.4,124.4z"/>
	<path class="st6" d="M205.8,145.8c0.5-0.5,1-1,1.6-1.4c2.8-2.1,5.9-3.6,9.2-4.5c0.7-0.2,1.4-0.4,2.1-0.4c0.1,0.2-3.1,1-6.7,2.7
		S205.9,145.9,205.8,145.8z"/>
	<path class="st6" d="M240.1,109.4c0.2-0.1,0.5-0.1,0.6,0.1c0.1,0.2,0.1,0.5-0.1,0.6c-0.1,0.1-0.3,0.1-0.4,0
		c-0.2-0.1-0.3-0.4-0.2-0.6C240,109.5,240,109.4,240.1,109.4"/>
	<path class="st6" d="M245.3,117c0.2-0.1,0.5-0.1,0.6,0.1c0.1,0.2,0.1,0.5-0.1,0.6c-0.1,0.1-0.3,0.1-0.4,0c-0.2-0.1-0.3-0.4-0.2-0.6
		C245.2,117.1,245.3,117.1,245.3,117"/>
	<path class="st6" d="M213.6,138.4c0.2-0.1,0.5,0,0.6,0.2c0,0,0,0.1,0.1,0.2c0,0.2-0.2,0.4-0.4,0.4c-0.1,0-0.1,0-0.2,0
		c-0.2-0.1-0.3-0.4-0.2-0.6C213.5,138.5,213.6,138.5,213.6,138.4"/>
	<path class="st6" d="M207.1,142c0.2-0.1,0.5-0.1,0.6,0.1c0.1,0.2,0.1,0.5-0.1,0.6c-0.1,0.1-0.3,0.1-0.4,0c-0.2-0.1-0.3-0.4-0.2-0.6
		C207,142.1,207,142.1,207.1,142"/>
	<g class="st8">
		<path class="st6" d="M246.8,105.7c0.1,0.4-2.9,1.2-7.6,2.7s-11.1,3.8-17.1,8c-2.8,2-5.2,4.4-7.3,7.2c-1.7,2.2-3,4.7-4,7.3
			c-1.6,4.5-1.4,7.6-1.9,7.7c-0.2,0-0.4-0.8-0.5-2.2c-0.1-2,0.1-4,0.6-6c0.8-2.9,2.1-5.7,3.8-8.2c2.1-3,4.7-5.7,7.7-7.9
			c3-2.1,6.2-3.8,9.7-5.2c2.8-1.1,5.6-1.9,8.5-2.5C243.7,105.6,246.8,105.4,246.8,105.7z"/>
	</g>
	<g class="st8">
		<path class="st6" d="M214.9,153.2c-0.4,0.6-2.3-0.2-3.7-2.2s-1.5-4-0.8-4.2s1.8,1.1,3,2.7S215.4,152.6,214.9,153.2z"/>
	</g>
	<path class="st7" d="M283.4,169.2c2,0.6,1.9,29.5,1.5,44.3c-0.2,7.9-0.8,16.2-4.9,23c-4.5,7.6-13.1,12.4-21.9,13
		c-10.6,0.7-21.1-4.4-28.3-12.2s-11.6-17.9-13.9-28.3s-2.8-21-3.2-31.7C212.7,177.5,247,159,283.4,169.2z"/>
	<g class="st10">
		<path d="M214.3,191.5c-0.2,9.3,1.4,20.1,4.4,27.9c3.2,8.4,7.9,16,15.8,22.4c2.2,1.6,4.5,3.1,7,4.4c2.1,1.1,4.3,1.9,6.5,2.5
			c3.7,1.1,5.9-3.6,6.6-7.4s-0.6-7.8-3-10.9c-2.4-3-5.4-5.6-8.8-7.6c-3.3-2-6.6-4.1-9.7-6.4c-5.1-4.4-9.1-9.8-11.9-15.9
			c-2.7-6.1-4.9-12.4-6.7-18.9"/>
	</g>
	<path class="st6" d="M238.8,231c0.2-0.1,0.5,0,0.6,0.2c0,0,0,0.1,0,0.1c0,0.2-0.2,0.4-0.4,0.4c0,0-0.1,0-0.1,0
		c-0.2-0.1-0.3-0.4-0.2-0.6C238.7,231.1,238.7,231.1,238.8,231"/>
	<path class="st6" d="M251.6,230.5c0.2-0.1,0.5-0.1,0.6,0.1c0.1,0.2,0.1,0.5-0.1,0.6c-0.1,0.1-0.3,0.1-0.4,0
		c-0.2-0.1-0.3-0.4-0.2-0.6C251.5,230.6,251.5,230.5,251.6,230.5"/>
	<path class="st6" d="M265.6,217.2c0.2-0.1,0.5,0,0.6,0.2c0,0,0,0.1,0.1,0.2c0,0.2-0.1,0.4-0.4,0.5c-0.2,0-0.4-0.1-0.5-0.4
		C265.4,217.5,265.5,217.3,265.6,217.2"/>
	<path class="st6" d="M259.2,184.5c0.2-0.1,0.5,0,0.6,0.2c0,0,0,0.1,0,0.1c0,0.2-0.2,0.4-0.5,0.4c0,0-0.1,0-0.1,0
		c-0.2-0.1-0.3-0.4-0.2-0.6C259.1,184.6,259.1,184.6,259.2,184.5"/>
	<path class="st6" d="M272.3,189.9c0.2-0.1,0.5,0,0.6,0.2c0,0,0,0.1,0.1,0.2c0,0.2-0.1,0.4-0.4,0.5s-0.4-0.1-0.5-0.4
		C272.1,190.1,272.2,190,272.3,189.9"/>
	<path class="st6" d="M224.2,227.2c0.2-0.1,0.5,0,0.6,0.2c0,0,0,0.1,0,0.1c0,0.2-0.2,0.4-0.4,0.4c0,0-0.1,0-0.1,0
		c-0.2-0.1-0.3-0.4-0.2-0.6C224.1,227.3,224.2,227.3,224.2,227.2"/>
	<path class="st6" d="M222.1,216.3c0.2-0.1,0.5,0,0.6,0.2c0,0,0,0.1,0,0.1c0,0.2-0.2,0.4-0.4,0.4c0,0-0.1,0-0.1,0
		c-0.2-0.1-0.3-0.4-0.2-0.6C222,216.4,222,216.4,222.1,216.3"/>
	<path class="st6" d="M221.2,206.4c0.2-0.1,0.5,0,0.6,0.2c0,0,0,0.1,0,0.1c0,0.2-0.2,0.4-0.4,0.4c-0.1,0-0.1,0-0.2,0
		c-0.2-0.1-0.3-0.4-0.2-0.6C221.1,206.5,221.1,206.5,221.2,206.4"/>
	<path class="st6" d="M220.2,196c0.2-0.1,0.5,0,0.6,0.2c0,0,0,0.1,0,0.1c0,0.2-0.2,0.4-0.4,0.4c0,0-0.1,0-0.1,0
		c-0.2-0.1-0.3-0.4-0.2-0.6C220.1,196.1,220.2,196.1,220.2,196"/>
	<path class="st6" d="M280.1,187.3c0.2-0.1,0.5-0.1,0.6,0.1c0.1,0.2,0.1,0.5-0.1,0.6c-0.1,0.1-0.3,0.1-0.4,0
		c-0.2-0.1-0.3-0.4-0.2-0.6C280,187.4,280.1,187.3,280.1,187.3"/>
	<path class="st6" d="M267.8,229.5c0.2-0.1,0.5,0,0.6,0.2c0,0,0,0.1,0.1,0.2c0,0.2-0.1,0.4-0.4,0.5c-0.2,0-0.4-0.1-0.5-0.4
		C267.6,229.7,267.6,229.6,267.8,229.5"/>
	<path class="st6" d="M269.2,239.8c0.2-0.1,0.5-0.1,0.6,0.1c0.1,0.2,0.1,0.5-0.1,0.6c-0.1,0.1-0.3,0.1-0.4,0
		c-0.2-0.1-0.3-0.4-0.2-0.6C269.1,239.9,269.1,239.9,269.2,239.8"/>
	<g class="st8">
		<path class="st6" d="M275.4,177c0.1,0.3-3,1.7-8.3,3.1c-3.1,0.8-6.3,1.5-9.4,2c-7.8,1.2-15.7,1.5-23.6,0.8
			c-3.2-0.3-6.4-0.7-9.5-1.3c-5.4-1.1-8.6-2.2-8.5-2.6c0.2-0.8,13.3,2.2,29.8,1.6S275.2,176.3,275.4,177z"/>
	</g>
	<path class="st6" d="M237.6,244c0,0-0.2-0.1-0.6-0.4s-0.9-0.8-1.5-1.4c-1.8-1.7-3.2-3.8-4.2-6c-0.7-1.5-1.2-3.1-1.7-4.8
		c-0.5-1.7-1-3.6-1.6-5.6c-1.1-3.9-2.1-8.3-3-12.9c-1.6-7.9-2.7-15.9-3.3-23.9c-0.2-3.1-0.4-5.6-0.4-7.3v-2c0-0.2,0-0.5,0-0.7
		c0.1,0.2,0.1,0.5,0.1,0.7c0,0.5,0.1,1.2,0.1,2c0.1,1.7,0.3,4.2,0.6,7.3c0.6,6.1,1.6,14.6,3.5,23.8c0.9,4.6,1.9,9,3,12.9
		c0.5,2,1,3.8,1.5,5.6c0.4,1.6,0.9,3.2,1.6,4.8c1,2.2,2.3,4.2,4,6c0.6,0.6,1.1,1.1,1.4,1.4C237.3,243.6,237.4,243.8,237.6,244z"/>
	<path class="st6" d="M260.9,212.1c0.1,0,1.2,7.9,2.4,17.8s2,17.8,1.9,17.9s-1.2-7.9-2.4-17.8S260.7,212.1,260.9,212.1z"/>
	<path class="st6" d="M245.8,167.2c0.3,0.2,0.5,0.4,0.7,0.7c0.4,0.5,1,1.2,1.8,2.1c1.5,1.8,3.6,4.2,5.8,7l0.8,1l0.1,0.1
		c0.1,0,0.1,0.1,0.1,0.2c0,0.1,0.1,0.1,0.1,0.2v0.2c0.1,0.2,0.1,0.4,0.1,0.6c0.1,0.8,0.1,1.6,0.2,2.4c0.1,1.5,0.1,2.9,0.1,4.1
		s0,2.1,0,2.8c0,0.3,0,0.7-0.1,1c-0.2-1.2-0.3-2.5-0.3-3.8c-0.1-1.2-0.2-2.6-0.2-4.1c0-0.8-0.1-1.6-0.2-2.4c0-0.2-0.1-0.4-0.1-0.6
		v-0.1v-0.1c0,0-0.1-0.1-0.2-0.2l-0.8-1c-2.2-2.7-4.2-5.2-5.7-7.1c-0.7-0.9-1.3-1.7-1.7-2.2C246.2,167.8,246,167.5,245.8,167.2z"/>
	<path class="st6" d="M261.8,227.2c-0.4,0.1-0.8,0.2-1.2,0.3c-0.8,0.1-2,0.3-3.5,0.5c-2.9,0.4-7,0.8-11.4,1s-8.6,0.2-11.5,0.2
		c-1.5,0-2.6-0.1-3.5-0.1c-0.4,0-0.9,0-1.3-0.1c0.4-0.1,0.9-0.1,1.3-0.1h3.5c2.9,0,7-0.1,11.5-0.3s8.5-0.6,11.4-0.8l3.5-0.3
		C260.9,227.2,261.3,227.2,261.8,227.2z"/>
	<path class="st6" d="M285,188.6c0,0-0.2,0.2-0.7,0.5c-0.6,0.4-1.3,0.8-2,1.1c-2.3,1.1-4.6,2-7.1,2.7c-2.4,0.7-4.9,1.3-7.4,1.6
		c-1,0.2-2.1,0.3-3.1,0.3c1-0.3,2-0.5,3-0.7c1.9-0.4,4.5-1,7.3-1.8c2.4-0.7,4.8-1.6,7.1-2.6C283.9,189.1,284.9,188.5,285,188.6z"/>
	<circle class="st5" cx="257.5" cy="200.7" r="11.7"/>
	<ellipse transform="matrix(0.977 -0.2131 0.2131 0.977 -36.8553 59.4788)" class="st6" cx="257.5" cy="200.7" rx="8.5" ry="8.5"/>
	<path class="st7" d="M262.1,202.6c-0.1-0.5-0.2-0.9-0.2-1.4c-0.1-0.9-0.2-2.1-0.3-3.7l0.1,0.2l-4.6-2.2h0.2l-4.2,2.8
		c-0.1,0.2,0.1-0.3,0.1-0.2l0,0v0.3v0.3v0.7c0,0.4,0.1,0.9,0.1,1.3c0.1,0.9,0.1,1.7,0.1,2.5l-0.1-0.2l4.5,2.3h-0.2
		c1.3-0.8,2.4-1.5,3.1-1.9C261.1,203,261.6,202.7,262.1,202.6c-0.4,0.3-0.8,0.6-1.1,0.8c-0.7,0.5-1.8,1.2-3.1,2.1l-0.1,0.1h-0.1
		l-4.6-2.2l-0.1-0.1v-0.1c-0.1-0.8-0.1-1.6-0.2-2.5c0-0.4-0.1-0.9-0.1-1.3v-0.7v-0.3V198l0,0c0,0.1,0.2-0.4,0.1-0.2l4.3-2.8l0.1-0.1
		l0.1,0.1l4.5,2.3l0.1,0.1v0.1c0.1,1.6,0.1,2.9,0.1,3.8C262.1,201.7,262.1,202.1,262.1,202.6z"/>
	<g class="st10">
		<path d="M212.7,177.5c0,0,34.3-18.8,70.7-8.2C283.4,169.2,267.8,184,212.7,177.5z"/>
	</g>
	<path class="st6" d="M268,408.2c0.2-0.1,0.5-0.1,0.6,0.1c0.1,0.2,0.1,0.5-0.1,0.6c-0.1,0.1-0.3,0.1-0.4,0c-0.2-0.1-0.3-0.4-0.2-0.6
		C267.9,408.3,267.9,408.2,268,408.2"/>
	<path class="st7" d="M253.1,279.7c0.6,24.4,3.1,48.9,9.3,72.5c1.1,4.1,2.3,8.3,5.2,11.3s8,4.4,11.4,1.9c2.9-2.1,3.5-6.1,3.9-9.7
		c3.1-26.2,4.8-52.5,5.2-78.8c0,0,0.8-20.1-13.4-20.1S252.7,264.8,253.1,279.7z"/>
	<g class="st10">
		<path d="M263,259c1.8-2.1,5.4-2,7.5-0.2s3.1,4.6,3.4,7.4c1,8.8-3.3,17.2-4.8,25.8c-1.5,8.4-0.4,16.9-0.8,25.4s-2.3,17.1-8.9,22.4
			c0,0-6.4-32.6-5.5-45.1C254.6,285.5,263,259,263,259z"/>
	</g>
	<path class="st6" d="M264.9,291.9c0.1,0.2,0.1,0.5,0.1,0.8l0.2,2.2c0.2,2,0.5,4.7,0.8,8c0.7,6.8,1.7,16.2,3.1,26.5
		s2.7,19.6,3.7,26.4c0.5,3.3,0.9,6,1.2,8c0.1,0.9,0.2,1.6,0.3,2.2c0.1,0.3,0.1,0.5,0.1,0.8c-0.1-0.2-0.1-0.5-0.2-0.7
		c-0.1-0.5-0.3-1.3-0.4-2.2c-0.4-1.9-0.8-4.6-1.4-8c-1.1-6.7-2.6-16-3.9-26.4s-2.3-19.7-2.9-26.5c-0.3-3.4-0.5-6.1-0.7-8.1
		c-0.1-0.9-0.1-1.6-0.1-2.2C264.9,292.4,264.9,292.1,264.9,291.9z"/>
	<path class="st5" d="M244,297.4c6.6,3.2,16.1,0.6,20.7-6.1s6-15,7.4-23c0.4-2.7,0.8-5.7-0.9-7.9c-1.9-2.5-5.5-2.6-8.6-2.5l-29.6,1
		c0,0-10.8,3.1-10.8,9.6S234.9,293,244,297.4z"/>
	<path class="st7" d="M269.5,369c-3.2,0.1-5.9,2.7-7.1,5.6s-1.4,6.2-1.5,9.4c-0.7,19.4-1.4,38.9-0.3,58.3c0.2,4.2,0.6,8.7,3.2,12
		s8.1,4.7,11,1.7c1.7-1.7,2-4.3,2.3-6.7l7.6-69.5c0.3-2.6,0.5-5.5-0.8-7.7c-1.4-2.1-3.8-3.5-6.3-3.7c-2.5-0.2-5.1,0-7.5,0.6"/>
	<path class="st6" d="M265.5,460.5c0-0.1,0-0.2,0-0.2l-0.1-0.7c-0.1-0.6-0.2-1.5-0.3-2.6c-0.2-2.3-0.5-5.6-0.6-9.8
		c-0.4-8.3-0.3-19.7,0.1-32.3s0.8-24,1-32.3c0-3.3,0.6-6.5,1.7-9.6c0.3-0.8,0.8-1.6,1.3-2.4l0.4-0.5c0.1-0.1,0.1-0.2,0.1-0.2
		c0,0.1-0.1,0.1-0.1,0.2l-0.4,0.6c-0.5,0.8-0.8,1.5-1.2,2.4c-1,3.1-1.5,6.3-1.5,9.6c-0.2,8.3-0.5,19.7-0.9,32.3s-0.5,24-0.2,32.3
		c0.1,4.1,0.3,7.5,0.5,9.8c0.1,1.1,0.1,2,0.2,2.6v0.7C265.6,460.3,265.6,460.4,265.5,460.5z"/>
	<path class="st5" d="M262.3,462c-0.4-2-0.5-4-0.3-6c0.2-2,1.1-3.9,2.7-5.2c2.6-1.7,5.9-2,8.9-0.9c2.1,1.2,3.5,3.4,3.8,5.9l1.5,7.2"
		/>
	<path class="st7" d="M261.8,461.7l17.3,0.2c0,0,12.7,2.9,12.4,3.9s-30.2-0.2-30.2-0.2L261.8,461.7z"/>
	<path class="st9" d="M257.5,258.9c0.2,0.5,0.4,1,0.6,1.5c0.2,0.6,0.4,1.2,0.5,1.9c0.2,0.8,0.4,1.7,0.6,2.5c0.2,1,0.4,2.1,0.5,3.1
		c0.2,1.1,0.2,2.3,0.3,3.6c0.1,2.7-0.1,5.5-0.5,8.2c-0.4,2.7-1.1,5.4-2,8c-0.5,1.2-0.9,2.3-1.4,3.3c-0.2,0.5-0.5,1-0.7,1.5l-0.7,1.3
		c-0.4,0.7-0.9,1.5-1.4,2.2c-0.4,0.5-0.7,1.1-1.2,1.6c-0.3,0.4-0.7,0.9-1.1,1.2c0.3-0.5,0.6-0.9,0.9-1.4c0.4-0.5,0.8-1.1,1.1-1.6
		c0.4-0.6,0.9-1.4,1.3-2.2c0.2-0.4,0.5-0.9,0.7-1.3s0.4-1,0.7-1.5c0.5-1,0.9-2.1,1.3-3.3c0.9-2.6,1.6-5.2,2-7.9
		c0.4-2.7,0.6-5.4,0.5-8.1c-0.1-1.2-0.1-2.4-0.2-3.5s-0.3-2.1-0.4-3.1s-0.3-1.8-0.5-2.5s-0.3-1.4-0.5-1.9
		C257.7,259.9,257.6,259.4,257.5,258.9z"/>
	<path class="st6" d="M271,317.1c0.2-0.1,0.5,0,0.6,0.2c0,0,0,0.1,0,0.1c0,0.2-0.1,0.4-0.4,0.5c-0.2,0-0.4-0.1-0.5-0.4
		C270.8,317.3,270.8,317.2,271,317.1"/>
	<path class="st6" d="M273.5,338.5c0.2-0.1,0.5-0.1,0.6,0.1c0.1,0.2,0.1,0.5-0.1,0.6c-0.1,0.1-0.3,0.1-0.4,0
		c-0.2-0.1-0.3-0.4-0.2-0.6C273.4,338.6,273.4,338.5,273.5,338.5"/>
	<path class="st6" d="M268.4,295.2c0.2-0.1,0.5-0.1,0.6,0.1s0.1,0.5-0.1,0.6c-0.1,0.1-0.3,0.1-0.4,0c-0.2-0.1-0.3-0.4-0.2-0.6
		C268.3,295.3,268.3,295.3,268.4,295.2"/>
	<path class="st6" d="M268.4,387.8c0.2-0.1,0.5,0,0.6,0.2c0,0,0,0.1,0.1,0.2c0,0.2-0.2,0.4-0.4,0.4c-0.1,0-0.1,0-0.2,0
		c-0.2-0.1-0.3-0.4-0.2-0.6C268.3,387.9,268.3,387.8,268.4,387.8"/>
	<path class="st9" d="M277.7,456c-0.7,0.4-1.5,0.7-2.2,0.8c-1.9,0.5-3.8,0.8-5.7,0.9c-1.9,0.1-3.8,0-5.7-0.2
		c-0.8-0.1-1.6-0.3-2.3-0.6c2.7,0.3,5.3,0.4,8,0.3C272.5,457,275.1,456.6,277.7,456z"/>
	<g class="st10">
		<path d="M260,427.6c4.6-3.3,7.5-8.5,9.1-14s2.1-11.1,2.5-16.8s0.9-11.4,2.6-16.8c0.5-1.1,0.7-2.4,0.5-3.6
			c-0.4-1.9-2.4-3.1-4.2-3.9c-2.2-1-5.1-1.9-7-0.3c-1.5,1.1-1.8,3.2-2,5c-1.7,17-1.6,34-1.5,51.1"/>
	</g>
	<circle class="st5" cx="274.8" cy="366" r="12.3"/>
	<path class="st9" d="M286.4,364.2c-0.2,0.3-0.4,0.5-0.6,0.8c-0.6,0.6-1.4,1.2-2.2,1.6c-2.6,1.4-5.6,2.1-8.6,2
		c-3-0.2-5.9-0.8-8.7-1.8c-1.1-0.4-1.9-0.7-2.5-0.9c-0.3-0.1-0.6-0.2-0.9-0.4c1.2,0.2,2.4,0.6,3.5,1c2.8,0.9,5.7,1.4,8.6,1.6
		c2.9,0.2,5.8-0.4,8.4-1.8C284.5,365.7,285.5,365,286.4,364.2z"/>
	<path class="st7" d="M147.3,167.9c0,0-2.4-9.9-3.7-10.3s-16.8,1.8-16.8,1.8s-5-7-5.8-7.9s-2.4,1.4-1.9,2.4s4.2,11.3,6.5,11.6
		c2.7,0.2,5.4,0.1,8.1-0.1l1.9,6.4L147.3,167.9z"/>
	<path class="st7" d="M214.2,206.1c-9.8,3.6-16,5.4-25.8,9c-5.4,2-12.3,4.2-17.4,5.6c-3.4,0.9-7.3,1.1-10.6-0.3
		c-2.8-1.2-4.9-3.7-6.7-6.1c-8.7-11.5-13.5-26-16.9-40l11.7-2.2l21.2,29.7l38.6-13.2l6.4,15.7c0.4,0.5,0.4,1.2,0,1.6
		C214.5,205.9,214.3,206,214.2,206.1z"/>
	<path class="st5" d="M214.6,181.3c-7.2,2.2-11.3,9.9-9.1,17.1c0.8,2.6,2.3,4.9,4.4,6.6c1.6,1.3,3.9,2.3,5.7,0.3
		c0.6-0.6,1-1.4,1.2-2.2C218.9,195.8,218.1,188,214.6,181.3z"/>
	<path class="st9" d="M208.7,185.1c0,0,0-0.1,0.1-0.2c0.2-0.2,0.3-0.4,0.6-0.5c0.2-0.1,0.4-0.2,0.6-0.2c0.2,0,0.5,0,0.7,0.1
		c0.3,0.1,0.5,0.3,0.6,0.5l0.5,0.7c1.8,2.5,3.1,5.3,3.7,8.3c0.6,3,0.5,6.1-0.2,9.1c-0.3,0.9-0.8,1.7-1.4,2.4
		c-0.2,0.2-0.6,0.4-0.9,0.5c0,0,0.3-0.2,0.8-0.6c0.6-0.7,1-1.5,1.2-2.3c0.7-2.9,0.7-5.9,0.1-8.9c-0.6-2.9-1.8-5.7-3.5-8.2
		c-0.3-0.5-0.6-1-1-1.1c-0.3-0.2-0.7-0.2-1,0C208.9,184.8,208.7,185.1,208.7,185.1z"/>
	<path class="st6" d="M169.7,201.8c0.1,0.3,0.2,0.6,0.2,0.9c0.1,0.8,0.1,1.6,0.1,2.4c0,1.2-0.2,2.4-0.5,3.5c-1.1,4-3.6,7.5-7,9.8
		c-0.7,0.5-1.3,0.9-2.1,1.2c-0.3,0.1-0.5,0.3-0.8,0.3c0-0.1,1.1-0.6,2.6-1.9c2.1-1.6,3.8-3.5,5.1-5.7c0.7-1.2,1.3-2.5,1.7-3.9
		c0.3-1.1,0.5-2.3,0.6-3.4C169.8,203,169.6,201.8,169.7,201.8z"/>
	<path class="st6" d="M206.4,192.2c0.1,0.1-8.1,3.3-18.3,7.1s-18.4,6.8-18.4,6.7s8.1-3.3,18.3-7.1S206.4,192,206.4,192.2z"/>
	<path class="st6" d="M140.6,174c0.1,0.1,0.2,0.3,0.2,0.5l0.5,1.4c0.4,1.2,1,2.9,1.9,5c1.6,4.2,4,9.9,7.1,16c1.5,3,3.1,5.9,4.6,8.5
		s2.9,4.8,4.1,6.7c0.6,0.9,1.2,1.8,1.7,2.5s0.9,1.4,1.3,1.9l0.8,1.2c0.2,0.3,0.3,0.4,0.3,0.4c-0.1-0.1-0.2-0.2-0.3-0.4l-0.9-1.1
		c-0.4-0.5-0.9-1.1-1.4-1.8s-1.1-1.5-1.8-2.5c-1.3-1.8-2.7-4.1-4.2-6.6s-3.1-5.4-4.6-8.5c-2.6-5.2-4.9-10.6-6.9-16.1
		c-0.8-2.1-1.3-3.8-1.7-5c-0.2-0.6-0.3-1-0.4-1.4C140.6,174.4,140.6,174.2,140.6,174z"/>
	<path class="st6" d="M177.3,205.4c0.2-0.1,0.2-0.4,0.1-0.6c0,0-0.1-0.1-0.1-0.1c-0.2-0.1-0.5,0-0.6,0.2s0,0.5,0.2,0.6
		C177,205.5,177.2,205.5,177.3,205.4"/>
	<path class="st6" d="M161,210.2c0.2-0.1,0.3-0.4,0.2-0.6s-0.4-0.3-0.6-0.2c-0.1,0.1-0.2,0.2-0.2,0.3c0,0.2,0.2,0.4,0.4,0.4
		C160.9,210.2,160.9,210.2,161,210.2"/>
	<path class="st6" d="M153.6,198.6c0.2-0.1,0.3-0.4,0.2-0.6s-0.4-0.3-0.6-0.2c-0.1,0.1-0.2,0.2-0.2,0.3c0,0.2,0.2,0.4,0.4,0.4
		C153.4,198.6,153.5,198.6,153.6,198.6"/>
	<path class="st6" d="M186.9,202c0.2-0.1,0.3-0.4,0.2-0.6s-0.4-0.3-0.6-0.2c-0.1,0.1-0.2,0.2-0.2,0.3c0,0.2,0.2,0.4,0.5,0.4
		C186.8,202,186.8,202,186.9,202"/>
	<path class="st6" d="M197.7,198.3c0.2-0.1,0.5,0,0.6,0.2c0,0,0,0.1,0,0.1c0,0.2-0.2,0.4-0.5,0.4c0,0-0.1,0-0.1,0
		c-0.2-0.1-0.3-0.4-0.2-0.6C197.6,198.4,197.6,198.3,197.7,198.3"/>
	<path class="st5" d="M136.5,174.4c4-0.3,8-0.9,11.9-1.7c1.6-0.3,3.4-0.9,3.9-2.4c0.3-1.1-0.1-2.4-1-3.1c-0.9-0.7-2-1.2-3.2-1.4
		c-3.5-0.7-7.2-0.4-10.5,0.8c-1.2,0.4-2.3,1.1-3.2,2c-0.9,0.9-1.2,2.3-0.8,3.5C134,173.4,135.2,174.3,136.5,174.4"/>
	<path class="st9" d="M151.8,168.7c0,0.1-1-0.4-2.7-0.9c-4.5-1.2-9.2-0.3-13,2.4c-1.4,1-2.2,1.9-2.2,1.8c0.1-0.2,0.3-0.5,0.5-0.6
		c0.5-0.5,1-1,1.6-1.4c3.8-3,8.8-3.9,13.4-2.4c0.7,0.2,1.4,0.5,2,0.8C151.4,168.4,151.6,168.5,151.8,168.7z"/>
	<path class="st7" d="M233,368c-3.2,0.4-5.7,3.1-6.8,6.1s-1,6.3-0.9,9.5c0.5,19.5,0.9,38.9,3.2,58.3c0.5,4.2,1.2,8.6,3.9,11.8
		s8.4,4.2,11.1,1c1.6-1.8,1.7-4.4,1.9-6.8c1.1-23.3,2.3-46.6,3.4-69.9c0.1-2.6,0.2-5.5-1.3-7.7c-1.5-2-3.9-3.2-6.4-3.3
		c-2.5,0-5.1,0.4-7.5,1.1"/>
	<path class="st7" d="M216.5,280c0.6,24.4,3.1,48.9,9.3,72.5c1.1,4.1,2.3,8.3,5.2,11.3s8,4.4,11.4,1.9c2.9-2.1,3.5-6.1,3.9-9.7
		c3.1-26.2,4.8-52.5,5.2-78.8c0,0,0.8-20.1-13.4-20.1S216.1,265.1,216.5,280z"/>
	<g class="st8">
		<path class="st6" d="M228.4,356c-0.4,0-1.5-5.1-3-13.5s-3.5-20-5-32.9c-0.8-6.5-1.3-12.7-1.8-18.3s-0.8-10.8-0.3-15.1
			c0.3-3.5,1.4-6.8,3.3-9.8l1-1.3c0.3-0.3,0.5-0.6,0.8-0.9c0.5-0.4,0.7-0.6,0.8-0.6s-0.1,0.4-0.4,0.9c-0.1,0.3-0.4,0.6-0.6,1
			s-0.5,0.9-0.7,1.4c-1.4,3-2.2,6.2-2.3,9.4c-0.3,4.1,0.2,9.1,0.8,14.7s1.2,11.8,2,18.2c1.5,12.9,3.2,24.5,4.2,33
			S228.7,355.9,228.4,356z"/>
	</g>
	<path class="st6" d="M236.1,366.7c0-0.1-0.1-0.2-0.1-0.3l-0.2-0.8l-0.8-3.2c-0.6-2.8-1.4-6.8-2.4-11.8c-1.8-10-3.7-23.9-5-39.2
		c-0.7-7.7-1.2-15-1.7-21.7c-0.2-3.3-0.5-6.5-0.7-9.5c-0.2-2.8-0.3-5.5-0.2-8.3c0.1-2.3,0.5-4.6,1.3-6.7c0.6-1.6,1.4-3.2,2.5-4.5
		c0.7-0.9,1.5-1.6,2.4-2.3c0.3-0.2,0.7-0.4,1-0.6c-1.2,0.8-2.3,1.8-3.2,3c-1,1.4-1.8,2.9-2.4,4.5c-0.7,2.1-1.1,4.4-1.2,6.6
		c-0.1,2.8,0,5.5,0.3,8.2c0.2,3,0.5,6.1,0.7,9.5c0.5,6.7,1.1,14,1.7,21.7c1.3,15.4,3.1,29.3,4.9,39.2c0.9,5,1.6,9,2.2,11.8
		c0.3,1.4,0.5,2.4,0.6,3.2c0.1,0.4,0.1,0.6,0.2,0.8C236.2,366.5,236.2,366.6,236.1,366.7z"/>
	<path class="st6" d="M233.4,453.5c-0.1-0.3-0.1-0.5-0.1-0.8c-0.1-0.6-0.2-1.4-0.3-2.4c-0.2-2.1-0.6-5.1-0.9-8.9
		c-0.7-7.5-1.6-17.8-2.2-29.3s-0.9-21.8-1-29.4c0-3.8-0.1-6.8,0-8.9c0-1,0-1.8,0-2.4c0-0.3,0-0.6,0-0.8c0,0.3,0.1,0.6,0.1,0.8
		c0,0.6,0,1.4,0.1,2.4c0,2.1,0.1,5.2,0.2,8.9c0.2,7.5,0.5,17.9,1.1,29.3s1.4,21.8,2.1,29.3c0.3,3.7,0.6,6.7,0.8,8.9
		c0.1,1,0.1,1.8,0.2,2.4C233.3,452.9,233.4,453.2,233.4,453.5z"/>
	<circle class="st5" cx="236.5" cy="366.3" r="12.3"/>
	<path class="st5" d="M229.3,464.4c0-2,0-7.5,0.6-9.5c0.5-2,1.7-3.7,3.4-4.7c1.4-0.7,3-1,4.5-0.8c1.5,0,3,0.5,4.4,1.3
		c1.9,1.5,3,3.9,2.9,6.4l0.4,7.4"/>
	<path class="st7" d="M229.6,462l17.3-0.2c0,0,12.7,2.6,12.5,3.6s-30.2,0.4-30.2,0.4L229.6,462z"/>
	<path class="st6" d="M230.1,300.4c0.2-0.1,0.5,0,0.6,0.2c0,0,0,0.1,0,0.1c0,0.2-0.1,0.4-0.4,0.5c-0.2,0-0.4-0.1-0.5-0.4
		C229.9,300.6,229.9,300.5,230.1,300.4"/>
	<path class="st6" d="M228.8,281.9c0.2-0.1,0.5-0.1,0.6,0.1c0.1,0.2,0.1,0.5-0.1,0.6c-0.1,0.1-0.3,0.1-0.4,0
		c-0.2-0.1-0.3-0.4-0.2-0.6C228.7,282,228.8,281.9,228.8,281.9"/>
	<path class="st6" d="M231.6,323c0.2-0.1,0.5,0,0.6,0.2c0,0,0,0.1,0,0.1c0,0.2-0.2,0.4-0.5,0.4c0,0-0.1,0-0.1,0
		c-0.2-0.1-0.3-0.4-0.2-0.6C231.5,323.1,231.5,323.1,231.6,323"/>
	<path class="st6" d="M234.7,348.5c0.2-0.1,0.5,0,0.6,0.2c0,0,0,0.1,0,0.1c0,0.2-0.2,0.4-0.5,0.4c0,0-0.1,0-0.1,0
		c-0.2-0.1-0.3-0.4-0.2-0.6C234.6,348.6,234.7,348.5,234.7,348.5"/>
	<path class="st6" d="M231.2,387.3c0.2-0.1,0.5-0.1,0.6,0.1c0.1,0.2,0.1,0.5-0.1,0.6c-0.1,0.1-0.3,0.1-0.4,0
		c-0.2-0.1-0.3-0.4-0.2-0.6C231.1,387.4,231.1,387.4,231.2,387.3"/>
	<path class="st6" d="M233.1,407.4c0.2-0.1,0.5-0.1,0.6,0.1c0.1,0.2,0.1,0.5-0.1,0.6c-0.1,0.1-0.3,0.1-0.4,0
		c-0.2-0.1-0.3-0.4-0.2-0.6C233.1,407.5,233.1,407.4,233.1,407.4"/>
	<path class="st6" d="M233.4,429.9c0.2-0.1,0.5-0.1,0.6,0.1c0.1,0.2,0.1,0.5-0.1,0.6c-0.1,0.1-0.3,0.1-0.4,0
		c-0.2-0.1-0.3-0.4-0.2-0.6C233.3,430,233.3,429.9,233.4,429.9"/>
	<path class="st9" d="M248.5,363.8c0,0-0.2,0.3-0.7,0.7c-0.7,0.6-1.5,1.2-2.3,1.6c-5.4,3.3-12.1,3.4-17.7,0.4
		c-0.8-0.4-1.6-1-2.3-1.5c-0.3-0.2-0.5-0.4-0.8-0.7c0.1-0.1,1.2,0.9,3.3,1.9c5.5,2.7,12,2.6,17.4-0.4
		C247.4,364.8,248.5,363.8,248.5,363.8z"/>
	<path class="st9" d="M245,456.7c-0.7,0.4-1.4,0.7-2.2,0.8c-1.8,0.5-3.7,0.8-5.5,0.9c-1.9,0.1-3.8,0-5.6-0.4
		c-0.8-0.1-1.5-0.3-2.2-0.6c2.6,0.3,5.2,0.5,7.8,0.5C239.9,457.7,242.5,457.3,245,456.7z"/>
	<path class="st6" d="M257.8,130.9c0.3,0.7,0.3,1.5,0,2.2c-0.2,0.8-0.6,1.5-1.2,2.1c-1.9,2.1-5.2,2.2-7.3,0.3
		c-0.1-0.1-0.3-0.2-0.4-0.4c-0.6-0.5-0.9-1.2-1-2c0.4,0.6,0.8,1.2,1.3,1.7c0.5,0.5,1.2,1,1.9,1.2c0.9,0.3,1.8,0.4,2.7,0.1
		c0.9-0.2,1.7-0.7,2.4-1.3c0.5-0.5,0.9-1.2,1.2-1.9C257.6,132.3,257.8,131.6,257.8,130.9z"/>
</g>
<g id="freepik--Plant--inject-18">
	<path class="st9" d="M126.6,409.7c3,0.5,5.6,2.2,7.3,4.6c1.7,2.5,2.7,5.3,3.1,8.2c0.9,5.6-0.6,12.1-2.7,17.4
		c-5.8-2.7-8.8-9.4-10.2-12.9C122.1,421.5,121.6,410.2,126.6,409.7"/>
	<path class="st9" d="M142.9,448c-1.8-2.9-1.9-6.5-0.2-9.5c1.7-2.9,4.4-5,7.7-5.9c1.5-0.5,3.1-0.4,4.4,0.3c1.1,0.9,1.7,2.4,1.5,3.8
		c-0.3,1.4-0.9,2.7-1.8,3.8C151.4,444.5,147.8,447.7,142.9,448"/>
	<path class="st5" d="M141.4,465.9c-0.1-0.4-0.2-0.8-0.2-1.2c-0.1-0.8-0.2-1.9-0.2-3.3c-0.3-3.6-0.1-7.3,0.6-10.8
		c0.7-3.6,2.4-6.9,4.9-9.6c0.8-0.8,1.6-1.5,2.6-2.1c0.3-0.2,0.7-0.4,1.1-0.5c-1.2,0.9-2.3,1.9-3.3,2.9c-2.3,2.7-3.9,6-4.6,9.5
		c-0.7,3.5-1,7.1-0.8,10.7C141.5,462.9,141.5,464.4,141.4,465.9z"/>
	<path class="st5" d="M128,418.3c0.3,0.6,0.5,1.2,0.7,1.9c0.4,1.2,1,3,1.7,5.1c1.4,4.4,3.3,10.4,5.2,17.1s3.5,12.8,4.5,17.3
		c0.5,2.2,0.9,4,1.2,5.3c0.2,0.7,0.3,1.3,0.4,2c-0.3-0.6-0.4-1.3-0.6-1.9l-1.4-5.2c-1.2-4.4-2.8-10.5-4.7-17.2s-3.7-12.8-5-17.1
		c-0.6-2.1-1.1-3.9-1.5-5.2C128.3,419.6,128.1,418.9,128,418.3z"/>
	<path class="st9" d="M135.2,453.3c-2.9-6.5-8.8-11.1-15.8-12.5c-1.8-0.3-3.9-0.3-4.9,1.2s-0.1,3.5,0.9,4.9
		c4.6,6.1,12.4,8.8,19.7,6.9"/>
	<path class="st5" d="M121.4,445.8c0.4,0,0.8,0,1.2,0.1c0.4,0.1,0.9,0.2,1.3,0.3c0.6,0.1,1.2,0.3,1.7,0.5c1.5,0.5,2.9,1.2,4.2,2
		c1.6,1,3.2,2.2,4.6,3.5c1.4,1.3,2.6,2.8,3.6,4.4c0.8,1.3,1.6,2.7,2.1,4.2c0.2,0.6,0.4,1.1,0.6,1.7c0.1,0.4,0.2,0.9,0.3,1.3
		c0.1,0.4,0.2,0.8,0.2,1.1c-0.1,0-0.4-1.6-1.5-4c-0.6-1.4-1.3-2.7-2.2-4c-1.1-1.5-2.2-3-3.6-4.3c-1.4-1.3-2.8-2.4-4.4-3.4
		c-1.3-0.8-2.7-1.5-4.1-2.1C123,446.2,121.3,445.9,121.4,445.8z"/>
</g>
<g id="freepik--Cube--inject-18">
	<path class="st7" d="M423.6,69.1c-3.4-12-16.5-23.1-28.9-23.1c-10.4-3.1-24.5,2.7-30.1,8.8c-7.3,8.1-12,19.4-9,29.9
		s11.4,19.2,21.6,23.1c11.6,4.5,25.6,2.6,35.3-5.2S427.1,81.1,423.6,69.1z"/>
	<path class="st11" d="M423.6,69.1c-3.4-12-16.5-23.1-28.9-23.1c-10.4-3.1-24.5,2.7-30.1,8.8c-7.3,8.1-12,19.4-9,29.9
		s11.4,19.2,21.6,23.1c11.6,4.5,25.6,2.6,35.3-5.2S427.1,81.1,423.6,69.1z"/>
	<path class="st7" d="M405.7,86.9c0-0.1,0-0.2,0-0.3c0-0.2,0-0.6,0-1c0-0.9,0-2.1,0-3.7c0-3.2-0.1-7.8-0.1-13.4l0.1,0.2l-16-9.2h0.2
		l-16,9.2c-0.1,0.2,0.1-0.3,0.1-0.2l0,0V78c0,3.1,0,6.1,0,8.9l-0.1-0.2l15.9,9.3h-0.2l11.7-6.6l3.2-1.8l0.9-0.5L405.7,86.9
		c0,0.1-0.1,0.2-0.2,0.2l-0.8,0.5l-3.1,1.9l-11.7,6.8l-0.1,0.1l-0.1-0.1l-16-9.2l-0.1-0.1v-0.1c0-2.9,0-5.9,0-8.9c0-1.5,0-3.1,0-4.7
		v-4.8l0,0c0,0.1,0.2-0.4,0.1-0.2l16-9.2l0.1-0.1L390,59l15.9,9.3l0.1,0.1v0.1c0,5.7-0.1,10.3-0.1,13.5c0,1.6,0,2.8,0,3.7
		c0,0.4,0,0.7,0,0.9S405.7,86.9,405.7,86.9z"/>
	<path class="st7" d="M405.7,68.5c-0.4,0.3-0.8,0.6-1.2,0.8l-3.4,2c-2.9,1.7-6.8,4-11.2,6.6h-0.3l0,0h0l-0.1-0.1l-0.2-0.1l-0.4-0.2
		L388,77l-1.6-1l-3-1.7l-5-3l-3.4-2c-0.4-0.2-0.8-0.5-1.2-0.8c0.5,0.2,0.9,0.4,1.3,0.6l3.5,1.9l5.1,2.9l3,1.7l1.6,0.9l0.8,0.5
		l0.4,0.2l0.2,0.1l0.1,0.1h0l0,0h-0.2c4.4-2.5,8.4-4.8,11.4-6.4l3.5-1.9C404.9,68.8,405.3,68.6,405.7,68.5z"/>
	<path class="st7" d="M389.8,95.9c-0.3-3.1-0.3-6.1-0.3-9.2c-0.1-3.1,0-6.1,0.3-9.2c0.3,3.1,0.4,6.1,0.3,9.2
		C390.1,89.7,390,92.8,389.8,95.9z"/>
</g>
<g id="freepik--Gears--inject-18">
	<path class="st12" d="M163.1,240.4c0.7-1.3,1.5-2.5,2.4-3.5l-1.4-3.7l5.5-3.6l2.8,2.8c1.4-0.4,2.8-0.7,4.2-0.8l1.7-3.6l6.4,1.4v4
		c1.3,0.6,2.5,1.5,3.5,2.4l3.7-1.4l3.5,5.5l-2.8,2.8c0.4,1.4,0.7,2.8,0.8,4.2l3.6,1.7l-1.4,6.4h-4c-0.6,1.3-1.5,2.5-2.4,3.5l1.4,3.7
		l-5.5,3.5l-2.8-2.8c-1.4,0.4-2.8,0.7-4.2,0.8l-1.7,3.6l-6.4-1.4v-4c-1.3-0.7-2.5-1.5-3.5-2.4l-3.7,1.4l-3.6-5.5l2.8-2.8
		c-0.4-1.4-0.7-2.8-0.8-4.2l-3.6-1.7l1.4-6.4L163.1,240.4L163.1,240.4z M170.7,245.9c-0.8,3.8,1.6,7.5,5.4,8.3
		c3.8,0.8,7.5-1.6,8.3-5.4c0.8-3.8-1.6-7.5-5.3-8.3C175.3,239.7,171.5,242.1,170.7,245.9C170.7,245.9,170.7,246,170.7,245.9
		L170.7,245.9z"/>
	<path class="st13" d="M163.1,240.4c0.7-1.3,1.5-2.5,2.4-3.5l-1.4-3.7l5.5-3.6l2.8,2.8c1.4-0.4,2.8-0.7,4.2-0.8l1.7-3.6l6.4,1.4v4
		c1.3,0.6,2.5,1.5,3.5,2.4l3.7-1.4l3.5,5.5l-2.8,2.8c0.4,1.4,0.7,2.8,0.8,4.2l3.6,1.7l-1.4,6.4h-4c-0.6,1.3-1.5,2.5-2.4,3.5l1.4,3.7
		l-5.5,3.5l-2.8-2.8c-1.4,0.4-2.8,0.7-4.2,0.8l-1.7,3.6l-6.4-1.4v-4c-1.3-0.7-2.5-1.5-3.5-2.4l-3.7,1.4l-3.6-5.5l2.8-2.8
		c-0.4-1.4-0.7-2.8-0.8-4.2l-3.6-1.7l1.4-6.4L163.1,240.4L163.1,240.4z M170.7,245.9c-0.8,3.8,1.6,7.5,5.4,8.3
		c3.8,0.8,7.5-1.6,8.3-5.4c0.8-3.8-1.6-7.5-5.3-8.3C175.3,239.7,171.5,242.1,170.7,245.9C170.7,245.9,170.7,246,170.7,245.9
		L170.7,245.9z"/>
	<path class="st0" d="M122.7,246.8c0.5-0.9,1.1-1.8,1.8-2.5l-1-2.7l4-2.6l2,2c1-0.3,2-0.5,3-0.6l1.2-2.6l4.6,1v2.9
		c0.9,0.5,1.8,1.1,2.6,1.8l2.7-1l2.6,4l-2,2.1c0.3,1,0.5,2,0.6,3l2.6,1.2l-1,4.6h-2.9c-0.4,0.9-1,1.8-1.6,2.6l1,2.7l-4,2.6l-2.1-2
		c-1,0.3-2,0.5-3,0.6l-1.2,2.6l-4.6-1v-2.9c-0.9-0.5-1.8-1.1-2.5-1.8l-2.7,1l-2.6-4l2-2.1c-0.3-1-0.5-2-0.6-3l-2.6-1.2l1-4.6h2.9
		L122.7,246.8z M128.2,250.8c-0.6,2.7,1.2,5.4,3.9,6c2.7,0.6,5.4-1.2,6-3.9c0.6-2.7-1.2-5.4-3.9-6c0,0,0,0,0,0
		C131.5,246.4,128.8,248.1,128.2,250.8L128.2,250.8z"/>
	<path class="st5" d="M128.2,250.9c0,0,0-0.1,0-0.3c0.1-0.3,0.2-0.6,0.3-0.9c0.5-1.1,1.3-2,2.4-2.5c1.6-0.8,3.5-0.7,5.1,0.2
		c2.5,1.5,3.3,4.8,1.8,7.3c-0.8,1.4-2.3,2.3-3.9,2.5c-1.8,0.2-3.6-0.5-4.7-1.8c-0.8-0.9-1.2-2.1-1.2-3.3c0-0.3,0-0.6,0.1-0.9
		C128.2,251,128.2,250.9,128.2,250.9s-0.1,0.5,0,1.2c0.1,1.1,0.5,2.2,1.3,3c1.8,2,4.9,2.2,6.9,0.4c0.8-0.7,1.3-1.6,1.5-2.6
		c0.5-2.6-1.1-5.2-3.8-5.8c-1-0.2-2.1-0.1-3,0.3c-1,0.5-1.9,1.2-2.4,2.2C128.3,250.4,128.3,250.9,128.2,250.9z"/>
	<path class="st5" d="M122.7,246.8c-0.2,0-0.5,0-0.7,0l-2.2,0.1l0.1-0.1c-0.2,1.2-0.6,2.8-0.9,4.6l-0.1-0.1l2.6,1.2h0.1v0.1
		c0.1,1,0.2,2,0.6,3v0.1l-0.1,0.1l-2,2.1v-0.2c0.8,1.2,1.7,2.6,2.6,4l-0.2-0.1l2.7-1h0.1l0.1,0.1c0.8,0.7,1.6,1.3,2.5,1.7l0.1,0.1
		v0.1c0,0.9,0,1.9,0,2.9l-0.2-0.2l4.6,1l-0.3,0.1l1.2-2.6l0.1-0.1h0.1c1,0,2-0.2,3-0.5l0.1,0l0.1,0.1c0.6,0.6,1.4,1.3,2.1,2h-0.3
		l4-2.6l-0.1,0.3l-1-2.7l-0.1-0.1l0.1-0.1c0.7-0.7,1.3-1.6,1.7-2.5l0,0l0.2-0.1h1.5h1.4l-0.2,0.2c0.3-1.6,0.7-3.1,1-4.6l0.1,0.3
		l-2.6-1.2l-0.1-0.1v-0.2c0-1-0.2-2-0.6-3l-0.1-0.1l0.1-0.1l2-2v0.3c-0.9-1.4-1.7-2.7-2.6-4l0.3,0.1l-2.7,1H141l-0.1-0.1
		c-0.8-0.7-1.6-1.3-2.5-1.7l-0.1-0.1v-0.1c0-1,0-1.9,0-2.9l0.2,0.2l-4.6-1l0.2-0.1l-1.2,2.6l-0.1,0.1h-0.1c-1,0-2,0.2-3,0.5h-0.1
		l-0.1-0.1l-2-2h0.2l-4,2.6v-0.1l1,2.7v0.1l0,0c-0.5,0.6-1,1.2-1.4,1.8c-0.1,0.2-0.3,0.4-0.4,0.6l0.1-0.2c0-0.1,0.1-0.3,0.3-0.5
		c0.4-0.7,0.8-1.3,1.4-1.9v0.1c-0.3-0.7-0.6-1.6-1-2.7v-0.1l0.1-0.1l4-2.6l0.1-0.1l0.1,0.1l2.1,2h-0.2c1-0.3,2-0.5,3.1-0.6l-0.2,0.1
		l1.2-2.6l0.1-0.1h0.1l4.6,1h0.2v0.2c0,0.9,0,1.9,0.1,2.9l-0.1-0.2c0.9,0.5,1.8,1.1,2.6,1.8h-0.2l2.7-1l0.2-0.1l0.1,0.2
		c0.8,1.3,1.7,2.6,2.6,4l0.1,0.2l-0.1,0.1l-2,2.1l0.1-0.3c0.3,1,0.5,2.1,0.6,3.1l-0.1-0.2l2.6,1.2l0.2,0.1v0.2
		c-0.3,1.5-0.6,3.1-1,4.6v0.2h-0.2h-1.4h-1.4l0.2-0.1l0,0c-0.5,0.9-1.1,1.8-1.8,2.6v-0.3l1,2.7l0.1,0.2l-0.2,0.1l-4,2.6l-0.2,0.1
		l-0.1-0.1l-2-2l0.3,0.1c-1,0.3-2.1,0.5-3.1,0.6l0.2-0.1c-0.4,0.9-0.8,1.8-1.2,2.6l-0.1,0.2h-0.2l-4.6-1H128v-0.2c0-1,0-2,0-2.9
		l0.1,0.2c-0.9-0.5-1.8-1.1-2.6-1.8h0.2l-2.7,1h-0.2l-0.1-0.1l-2.6-4l-0.1-0.1l0.1-0.1l2-2v0.2c-0.3-1-0.5-2-0.6-3.1l0.1,0.1
		l-2.6-1.2h-0.1v-0.1c0.4-1.9,0.8-3.4,1-4.6v-0.1h1.9h0.6L122.7,246.8z"/>
	<path class="st5" d="M128.2,250.9c0-0.2,0.1-0.4,0.2-0.6c0.2-0.6,0.5-1.1,0.9-1.6c1.8-2.2,5.1-2.4,7.2-0.6s2.4,5.1,0.6,7.2
		c-0.9,1-2.1,1.7-3.5,1.8c-1,0.1-2.1-0.1-3-0.6c-1-0.5-1.7-1.4-2.2-2.4c-0.2-0.5-0.4-1-0.5-1.6c0-0.3,0-0.6,0-0.8c0-0.1,0-0.3,0-0.4
		V251v-0.1l0,0l0,0c0,0,0,0.2,0.2,0.2l0.3-0.2c-0.1,0.2-0.1,0.4-0.1,0.6c-0.2,2.1,1,4.1,2.9,4.9c2.6,1.1,5.5-0.2,6.5-2.7
		c0.4-0.9,0.5-2,0.3-2.9c-0.3-1.5-1.3-2.8-2.7-3.4c-2.1-1-4.5-0.4-6,1.3C128.8,249.3,128.4,250,128.2,250.9c0-0.3,0.1-0.5,0.1-0.7
		c0.2-0.6,0.5-1.2,0.9-1.7c0.6-0.8,1.5-1.4,2.4-1.7c1.3-0.4,2.7-0.3,3.9,0.2c2.7,1.3,3.9,4.5,2.6,7.2s-4.5,3.9-7.2,2.6
		c-2.1-1-3.3-3.1-3.1-5.4c0-0.3,0.1-0.5,0.1-0.8l0.1-0.2h0.2c0.1,0,0.2,0.1,0.2,0.2v0.3v0.2c0,0.1,0,0.2,0,0.4c0,0.3,0,0.5,0,0.8
		c0.3,2.6,2.7,4.5,5.3,4.1c2.6-0.3,4.5-2.7,4.1-5.3c-0.2-1.6-1.1-2.9-2.5-3.7c-1.1-0.6-2.4-0.7-3.6-0.4c-0.9,0.3-1.7,0.8-2.3,1.5
		C129,249.4,128.5,250.1,128.2,250.9z"/>
	<path class="st5" d="M122.7,246.8h-2.9h0.1c-0.2,1.2-0.6,2.8-1,4.7l-0.1-0.1l2.7,1.2l-0.1,0.2v-0.1l0.2-0.1c0.1,1,0.3,2,0.6,3h-0.2
		v-0.1l0.2,0.1l-2.1,2.2v-0.2c0.8,1.3,1.7,2.7,2.7,4.1l-0.2-0.1l2.8-1v0.3h-0.1l0.1-0.3c0.8,0.7,1.6,1.3,2.5,1.7l-0.2,0.2l-0.1-0.1
		l0.3-0.1c0,0.9,0,1.9,0,3l-0.1-0.2l4.8,1l-0.2,0.1c0.4-0.8,0.8-1.8,1.2-2.7l0.3,0.2l-0.1,0.1l-0.1-0.4c1-0.1,2-0.2,3-0.6v0.4h-0.1
		l0.2-0.4l2.1,2.1h-0.3l4.2-2.7l-0.1,0.2c-0.3-0.9-0.7-1.8-1-2.8h0.4v0.1l-0.4-0.2c0.7-0.8,1.3-1.6,1.7-2.5l0.3,0.3l-0.1,0.1
		l-0.1-0.4h3l-0.2,0.2l1-4.9l0.1,0.3l-2.7-1.2l0.3-0.4l0.1,0.1l-0.4,0.1c-0.1-1-0.2-2-0.6-3h0.5v0.1l-0.4-0.2l2.1-2.1v0.3l-2.7-4.2
		l0.3,0.1l-2.8,1v-0.5h0.1l-0.2,0.4c-0.8-0.7-1.6-1.3-2.5-1.7l0.3-0.4l0.1,0.1l-0.5,0.1c0-0.9,0-1.9-0.1-3l0.2,0.2l-4.8-1l0.3-0.1
		l-1.2,2.7l-0.4-0.3l0.1-0.1l0.2,0.5c-1,0.1-2,0.2-3,0.6v-0.5h0.1l-0.2,0.4l-2.1-2h0.3l-4.1,2.7l0.1-0.3l1,2.7h-0.5l0,0l0.4,0.2
		c-0.6,0.7-1.1,1.4-1.5,2.2l-0.1,0.2l0,0H123l0,0C123.1,246.9,122.7,246.7,122.7,246.8L122.7,246.8L122.7,246.8L122.7,246.8l0.2-0.4
		c0.2-0.3,0.3-0.5,0.5-0.8c0.3-0.5,0.7-1,1.1-1.4v0.3c-0.3-0.9-0.7-1.8-1-2.7h0.5v0.1l-0.4-0.3l4-2.6l0.1,0.5h-0.1l0.2-0.4
		c0.7,0.7,1.4,1.4,2.1,2l-0.3-0.1c1-0.3,2.1-0.5,3.2-0.6l-0.2,0.1l1.2-2.6l0.4,0.3l-0.1,0.1l-0.1-0.5l4.6,1l-0.2,0.4l-0.1-0.1
		l0.4-0.2c0,1,0,2,0,2.9l-0.1-0.2c1,0.5,1.9,1.1,2.7,1.9l-0.3-0.1l2.8-1v0.5l-0.2-0.1l0.3-0.4l2.6,4l-0.4,0.1v-0.2l0.4,0.2l-2.1,2.1
		l0.1-0.2c0.3,1,0.5,2.1,0.6,3.2l-0.1-0.2l2.7,1.2l-0.3,0.3l-0.1-0.2l0.4-0.1c-0.3,1.6-0.7,3.1-1,4.6l-0.4-0.2l0.1-0.1l0.1,0.4h-2.9
		l0.2-0.1c-0.5,1-1.1,1.9-1.9,2.7l0.1-0.2c0.4,1,0.7,1.9,1,2.8h-0.4l0.1-0.2l0.3,0.2l-4,2.6l-0.1-0.4h0.2l-0.2,0.4l-2.1-2.1l0.2,0
		c-1,0.3-2.1,0.5-3.2,0.6l0.2-0.1l-1.2,2.7l-0.3-0.2l0.1-0.1v0.4l-4.6-1l0.2-0.3l0.1,0.1l-0.3,0.1c0-1.1,0-2,0-2.9l0.1,0.1
		c-1-0.5-1.9-1.1-2.7-1.8h0.2l-2.8,1v-0.3h0.1l-0.2,0.2l-2.6-4l0.2-0.1v0.1l-0.2-0.1l2-2.1v0.1c-0.3-1-0.5-2.1-0.6-3.1l0.1,0.1
		l-2.7-1.2l0.1-0.1v0.1h-0.2c0.4-2,0.8-3.5,1-4.6l0.1,0.1l0,0v-0.1h2.9c-0.2,0-0.5,0.1-0.7,0.1l-2.2,0.1h-0.2l0.1-0.1l0,0l0.1-0.1
		v0.2c-0.2,1.1-0.5,2.6-0.9,4.6v0.3l-0.1-0.2v-0.1l-0.1-0.2l0.2,0.1l2.7,1.2h0.1v0.1c0.1,1,0.3,2.1,0.6,3.1v0.1v0.1l-2,2.1l-0.3,0.3
		v-0.4v-0.1v-0.4l0.2,0.3l2.6,4l0.2,0.4l-0.4-0.1l-0.1,0l-0.4-0.1l0.4-0.1l2.8-1h0.1l0.1,0.1c0.8,0.7,1.7,1.3,2.6,1.8l0.1,0v0.1
		c0,0.9,0,1.9,0.1,2.9v0.5l-0.3-0.4l-0.1-0.1l-0.3-0.4l0.5,0.1l4.6,1l0.5,0.1l-0.5,0.2l-0.1,0.1l-0.5,0.2l0.2-0.5
		c0.4-0.9,0.8-1.7,1.2-2.7l0.1-0.1h0.1c1.1,0,2.1-0.2,3.1-0.6h0.1l0.1,0.1l2.1,2.1l0.4,0.4l-0.6-0.1h-0.2l-0.6,0l0.5-0.3l4-2.6
		l0.5-0.3l-0.2,0.6l-0.1,0.2l-0.2,0.6l-0.2-0.6l-1-2.8V260l0.1-0.1c0.7-0.8,1.3-1.7,1.8-2.6l0.1-0.1h0.1h2.9h0.6l-0.5,0.4l-0.1,0.1
		l-0.5,0.4l0.1-0.6c0.3-1.5,0.6-3.1,1-4.6l0.1-0.6l0.3,0.6l0.1,0.2l0.3,0.6l-0.6-0.3l-2.7-1.2l-0.1-0.1v-0.1c0-1.1-0.2-2.1-0.6-3.1
		v-0.1l0.1-0.1l2.1-2.1l0.5-0.5l-0.1,0.7v0.2l-0.1,0.7l-0.4-0.6l-2.6-4l-0.4-0.6l0.7,0.2l0.2,0.1l0.7,0.2l-0.7,0.2l-2.8,1l-0.1,0.1
		l-0.1-0.1c-0.8-0.7-1.6-1.3-2.6-1.8l-0.1-0.1V242c0-1,0-1.9,0-2.9v-0.7l0.5,0.6l0.1,0.1l0.5,0.6l-0.7-0.1l-4.6-1l-0.7-0.2l0.6-0.3
		l0.1-0.1l0.6-0.3l-0.3,0.7c-0.4,0.9-0.8,1.8-1.2,2.7l-0.1,0.1h-0.2c-1,0-2.1,0.2-3.1,0.6h-0.1l-0.1-0.1l-2.1-2l-0.5-0.5l0.7,0.1
		h0.1l0.7,0.1l-0.6,0.4l-4,2.6l-0.6,0.4l0.2-0.7v-0.1l0.2-0.7l0.3,0.7c0.3,0.9,0.7,1.8,1,2.7v0.1l-0.1,0.1c-0.4,0.4-0.7,0.9-1.1,1.3
		c-0.2,0.2-0.3,0.5-0.5,0.7l-0.2,0.4v0.1l0,0l0,0c-0.1,0.1-0.4-0.1-0.4-0.1l0,0v-0.1c0-0.1,0-0.2,0.1-0.2l0.1-0.2
		c0.4-0.8,1-1.6,1.6-2.3l0.6-0.7l-0.2,0.9l0,0l-0.2,0.9l-0.3-0.9l-1-2.7l-0.1-0.2l0.2-0.1l4.1-2.7l0.2-0.1l0.2,0.1
		c0.7,0.7,1.4,1.4,2.1,2.1l0.7,0.6l-0.9-0.2h-0.1L129,241l0.9-0.3c1-0.3,2.1-0.5,3.1-0.6h0.9l-0.8,0.5l-0.1,0.1l-0.8,0.5l0.4-0.8
		c0.4-0.9,0.9-1.9,1.2-2.7l0.1-0.2h0.2l4.8,1h0.2v0.2c0,1,0,2,0,3v0.9l-0.5-0.8l-0.1-0.1l-0.5-0.8l0.8,0.4c1,0.5,1.8,1.1,2.6,1.8
		l0.7,0.6l-0.9-0.2h-0.1l-0.9-0.2l0.8-0.3l2.8-1l0.2-0.1l0.1,0.2l2.7,4.2l0.1,0.2l-0.1,0.1l-2.1,2.1l-0.6,0.6l0.2-0.9v-0.1l0.2-0.8
		l0.3,0.8c0.3,1,0.5,2.1,0.6,3.1v0.9l-0.5-0.7l-0.1-0.1l-0.5-0.7l0.8,0.4l2.7,1.2l0.2,0.1v0.2c-0.4,1.7-0.7,3.4-1.1,4.9v0.2h-0.2h-3
		h-0.8l0.7-0.4l0.1-0.1l0.7-0.4l-0.4,0.7c-0.5,0.9-1.1,1.8-1.8,2.6l-0.5,0.6l0.1-0.8v-0.1l0.1-0.8l0.3,0.7l1,2.8l0.1,0.2l-0.1,0.1
		l-4.2,2.7l-0.1,0.1l-0.1-0.1l-2.1-2.1L136,263l0.7,0.2h0.1l0.7,0.2l-0.7,0.2c-1,0.3-2.1,0.5-3.1,0.6H133l0.6-0.4l0.1-0.1l0.6-0.4
		l-0.3,0.6l-1.2,2.7l-0.1,0.1h-0.1l-4.8-1h-0.1v-0.1c0-1,0-2.1,0-3v-0.6l0.3,0.5l0.1,0.1l0.3,0.5l-0.5-0.3c-0.9-0.5-1.8-1.1-2.6-1.8
		l-0.4-0.4l0.6,0.1h0.1l0.6,0.1l-0.5,0.2l-2.8,1h-0.1l-0.1-0.1l-2.7-4.1v-0.1l0.1-0.1l2.1-2.1l0.3-0.3l-0.1,0.4v0.1l-0.1,0.4
		l-0.1-0.4c-0.3-1-0.5-2-0.6-3.1v-0.4l0.2,0.3v0.1l0.2,0.3l-0.3-0.2l-2.7-1.3h-0.1v-0.1l1.1-4.7l0,0l0,0h2.2h0.6L122.7,246.8z"/>
</g>
<g id="freepik--Screens--inject-18">
	<polyline class="st7" points="179,129.3 179,138.2 33.7,138.2 33.7,41 43.4,41 	"/>
	<polyline class="st11" points="179,129.3 179,138.2 33.7,138.2 33.7,41 43.4,41 	"/>
	<rect x="43.9" y="31.6" class="st6" width="145.3" height="97.3"/>
	<path class="st7" d="M189.1,128.8c0,0,0-0.6,0-1.8c0-1.2,0-2.9,0-5.1c0-4.5,0-11.1,0-19.6c0-16.9-0.1-41.2-0.1-70.8l0.2,0.2
		L44,31.8l0,0l0.3-0.3c0,34.7,0,67.6,0,97.3l-0.2-0.2l104.7,0.1l29.9,0.1h7.9h2.1h0.7h-0.7h-2h-7.9l-29.9,0.1L44,128.9h-0.2v-0.2
		c0-29.7,0-62.6,0-97.3v-0.3h0.3l145.3,0.1h0.2v0.2c-0.1,29.7-0.1,54-0.1,70.9c0,8.4,0,15-0.1,19.5c0,2.2,0,3.9,0,5.1
		C189.4,128.1,189.1,128.8,189.1,128.8z"/>
	<path class="st7" d="M43.9,40.2c0-0.2,32.5-0.3,72.6-0.3s72.6,0.1,72.6,0.3s-32.5,0.3-72.6,0.3S43.9,40.4,43.9,40.2z"/>
	<path class="st7" d="M49.6,35.9c0,0.6-0.5,1.2-1.2,1.2s-1.2-0.5-1.2-1.2s0.5-1.2,1.2-1.2h0C49.1,34.7,49.6,35.2,49.6,35.9
		C49.6,35.8,49.6,35.9,49.6,35.9z"/>
	<path class="st7" d="M53.6,35.9c0,0.6-0.5,1.2-1.2,1.2s-1.2-0.5-1.2-1.2s0.5-1.2,1.2-1.2h0C53.1,34.7,53.6,35.2,53.6,35.9
		C53.6,35.8,53.6,35.9,53.6,35.9z"/>
	<path class="st7" d="M57.5,35.9c0,0.6-0.5,1.2-1.2,1.2c-0.6,0-1.2-0.5-1.2-1.2c0-0.6,0.5-1.2,1.2-1.2c0,0,0,0,0,0
		C57,34.7,57.5,35.2,57.5,35.9C57.5,35.9,57.5,35.9,57.5,35.9z"/>
	<g class="st14">
		<path class="st6" d="M49.6,35.9c0,0.6-0.5,1.2-1.2,1.2s-1.2-0.5-1.2-1.2s0.5-1.2,1.2-1.2h0C49.1,34.7,49.6,35.2,49.6,35.9
			C49.6,35.8,49.6,35.9,49.6,35.9z"/>
		<path class="st6" d="M53.6,35.9c0,0.6-0.5,1.2-1.2,1.2s-1.2-0.5-1.2-1.2s0.5-1.2,1.2-1.2h0C53.1,34.7,53.6,35.2,53.6,35.9
			C53.6,35.8,53.6,35.9,53.6,35.9z"/>
		<path class="st6" d="M57.5,35.9c0,0.6-0.5,1.2-1.2,1.2c-0.6,0-1.2-0.5-1.2-1.2c0-0.6,0.5-1.2,1.2-1.2c0,0,0,0,0,0
			C57,34.7,57.5,35.2,57.5,35.9C57.5,35.9,57.5,35.9,57.5,35.9z"/>
	</g>
	<g class="st8">
		<rect x="56.4" y="50.4" class="st7" width="38.8" height="38.8"/>
	</g>
	<path class="st7" d="M169.2,61.3c0,0.2-15.1,0.3-33.8,0.3s-33.8-0.1-33.8-0.3s15.1-0.3,33.8-0.3S169.2,61.2,169.2,61.3z"/>
	<path class="st7" d="M169.2,68.5c0,0.1-15.1,0.3-33.8,0.3s-33.8-0.1-33.8-0.3s15.1-0.3,33.8-0.3S169.2,68.4,169.2,68.5z"/>
	<path class="st7" d="M169.2,75.7c0,0.1-15.1,0.3-33.8,0.3s-33.8-0.1-33.8-0.3s15.1-0.3,33.8-0.3S169.2,75.6,169.2,75.7z"/>
	<path class="st7" d="M141.6,82.9c-0.5,0.1-1,0.1-1.6,0.1l-4.3,0.1c-3.6,0-8.6,0.1-14.1,0.1s-10.5,0-14.1-0.1l-4.3-0.1
		c-0.5,0-1.1,0-1.6-0.1c0.5-0.1,1-0.1,1.6-0.1l4.3-0.1c3.6-0.1,8.6-0.1,14.1-0.1s10.5,0,14.1,0.1l4.3,0.1
		C140.6,82.8,141.1,82.8,141.6,82.9z"/>
	<rect x="58.8" y="102.2" class="st7" width="18.2" height="18.2"/>
	<rect x="58.8" y="102.2" class="st15" width="18.2" height="18.2"/>
	<rect x="91.8" y="102.2" class="st7" width="18.2" height="18.2"/>
	<rect x="91.8" y="102.2" class="st15" width="18.2" height="18.2"/>
	<rect x="124.8" y="102.2" class="st7" width="18.2" height="18.2"/>
	<rect x="124.8" y="102.2" class="st15" width="18.2" height="18.2"/>
	<rect x="157.9" y="102.2" class="st7" width="18.2" height="18.2"/>
	<rect x="157.9" y="102.2" class="st15" width="18.2" height="18.2"/>
	<rect x="305" y="230.2" class="st6" width="164.5" height="66.8"/>
	<path class="st7" d="M469.5,297c0,0,0-0.4,0-1.2s0-2,0-3.5c0-3,0-7.5,0-13.3c0-11.5-0.1-28.2-0.1-48.9l0.2,0.2l-164.4,0.1l0,0
		l0.3-0.3c0,23.4,0,46,0,66.8l-0.2-0.2l117.9,0.1l34.2,0.1h9.1h2.4L469.5,297l-0.8,0h-2.3h-9.1l-34.1,0.1l-118.1,0.1h-0.2V297
		c0-20.8,0-43.4,0-66.8V230h0.3l164.4,0.1h0.2v0.2c0,20.7-0.1,37.4-0.1,49c0,5.8,0,10.2,0,13.2c0,1.5,0,2.6,0,3.4
		S469.5,297,469.5,297z"/>
	<path class="st7" d="M305.2,239.2c0-0.1,36.8-0.3,82.1-0.3s82.1,0.1,82.1,0.3s-36.8,0.3-82.1,0.3S305.2,239.4,305.2,239.2z"/>
	<path class="st7" d="M312.1,235.2c0,0.7-0.5,1.2-1.2,1.2s-1.2-0.5-1.2-1.2c0-0.7,0.5-1.2,1.2-1.2S312.1,234.6,312.1,235.2
		L312.1,235.2z"/>
	<path class="st7" d="M316.2,235.2c0,0.7-0.6,1.2-1.2,1.2s-1.2-0.6-1.2-1.2c0-0.6,0.5-1.2,1.2-1.2
		C315.7,234,316.2,234.5,316.2,235.2C316.2,235.2,316.2,235.2,316.2,235.2z"/>
	<path class="st7" d="M320.2,235.2c0,0.7-0.6,1.2-1.2,1.2c-0.7,0-1.2-0.6-1.2-1.2c0-0.6,0.5-1.2,1.2-1.2
		C319.7,234,320.2,234.5,320.2,235.2C320.2,235.2,320.2,235.2,320.2,235.2z"/>
	<g class="st14">
		<path class="st6" d="M312.1,235.2c0,0.7-0.5,1.2-1.2,1.2s-1.2-0.5-1.2-1.2c0-0.7,0.5-1.2,1.2-1.2S312.1,234.6,312.1,235.2
			L312.1,235.2z"/>
		<path class="st6" d="M316.2,235.2c0,0.7-0.6,1.2-1.2,1.2s-1.2-0.6-1.2-1.2c0-0.6,0.5-1.2,1.2-1.2
			C315.7,234,316.2,234.5,316.2,235.2C316.2,235.2,316.2,235.2,316.2,235.2z"/>
		<path class="st6" d="M320.2,235.2c0,0.7-0.6,1.2-1.2,1.2c-0.7,0-1.2-0.6-1.2-1.2c0-0.6,0.5-1.2,1.2-1.2
			C319.7,234,320.2,234.5,320.2,235.2C320.2,235.2,320.2,235.2,320.2,235.2z"/>
	</g>
	<rect x="319" y="250.1" class="st7" width="39.7" height="39.7"/>
	<rect x="319" y="250.1" class="st15" width="39.7" height="39.7"/>
	<path class="st7" d="M458.1,260.7c0,0.1-20.4,0.3-45.6,0.3s-45.6-0.1-45.6-0.3s20.4-0.3,45.6-0.3S458.1,260.6,458.1,260.7z"/>
	<path class="st7" d="M458.1,268.8c0,0.1-20.4,0.3-45.6,0.3s-45.6-0.1-45.6-0.3s20.4-0.3,45.6-0.3S458.1,268.7,458.1,268.8z"/>
	<path class="st7" d="M425.6,276.9c-0.2,0-0.4,0.1-0.6,0h-1.7l-6.3,0.1l-20.8,0.1l-20.8-0.1l-6.3-0.1h-1.7c-0.2,0-0.4,0-0.6,0
		c0.2,0,0.4-0.1,0.6,0l1.7,0l6.3-0.1l20.8-0.1l20.8,0.1l6.3,0.1l1.7,0C425.2,276.9,425.4,276.9,425.6,276.9z"/>
</g>
</svg>
